<svg xmlns="http://www.w3.org/2000/svg" width="54" height="45" viewBox="0 0 54 45" fill="none">
  <g clip-path="url(#clip0_4602_3313)">
    <path d="M52.8862 0.305663C52.9478 0.305663 52.9971 0.354963 52.9971 0.416589V13.8386C52.9971 13.8805 52.9725 13.92 52.9355 13.9397L52.9281 13.9446L52.9207 13.9495L0.672193 43.6259C0.657403 43.6333 0.642613 43.6358 0.627823 43.6358C0.593313 43.6358 0.556337 43.616 0.534152 43.584C0.502107 43.5372 0.519362 43.4953 0.526757 43.4731L16.1303 0.374684C16.1476 0.332778 16.187 0.303198 16.2339 0.303198H52.8862M52.8862 -0.00246429H16.2339C16.0638 -0.00246429 15.9109 0.103532 15.8468 0.261293L0.240815 43.3695C0.127424 43.6604 0.354206 43.9414 0.627823 43.9414C0.689448 43.9414 0.751074 43.9266 0.815164 43.8971L53.0736 14.2133C53.2141 14.1418 53.3028 13.9988 53.3028 13.8411V0.416589C53.3028 0.187342 53.1155 7.2429e-07 52.8862 7.2429e-07" fill="#00AECD"/>
    <path d="M15.1255 11.132L0.0396256 43.4829C-0.115671 43.8182 0.212177 44.1781 0.559745 44.0499L47.8832 26.8268C48.0483 26.7652 48.1568 26.6099 48.1568 26.4349V11.3095C48.1568 11.0803 47.9694 10.8929 47.7402 10.8929H15.5027C15.34 10.8929 15.1921 10.9866 15.1231 11.1345" fill="#00AECD"/>
    <path d="M17.3259 13.5108H16.5815V11.7236H15.9258V15.892H16.5815V14.1048H17.3259V15.892H17.9939V11.7236H17.3259M44.9391 11.7236H44.2834V15.892H44.9391V11.7236ZM19.0736 11.7236L18.4081 15.892H19.0095L19.1229 15.1352H19.9265L20.0399 15.892H20.7005L20.035 11.7236H19.0761H19.0736ZM19.2043 14.5683L19.5198 12.4607L19.8353 14.5683H19.2043ZM24.7382 13.4442L24.4991 14.3612V11.7236H23.9174V15.892H24.5903L25.1376 13.9816L25.4062 12.9586V15.8944H25.9954V11.7261H25.2756L24.7407 13.4467L24.7382 13.4442ZM35.1332 14.837L35.2047 12.3202H35.7766V15.892H36.4421V11.7236H34.5909L34.4849 14.8715C34.4726 15.2585 34.3789 15.3004 34.0806 15.3004V15.8944H34.1817C34.8374 15.8944 35.111 15.5962 35.1357 14.8345M43.9136 14.8591V14.3168C43.9136 13.6513 43.5932 13.2865 42.9375 13.2865H42.6269V11.7212H41.9736V15.8895H42.9375C43.5932 15.8895 43.9136 15.5247 43.9136 14.8591ZM42.6269 13.883H42.9375C43.147 13.883 43.2579 13.9791 43.2579 14.2749V14.901C43.2579 15.1993 43.1445 15.293 42.9375 15.293H42.6269V13.883ZM38.9195 14.8591V14.3168C38.9195 13.6513 38.599 13.2865 37.9433 13.2865H37.6352V11.7212H36.9795V15.8895H37.9433C38.599 15.8895 38.9195 15.5247 38.9195 14.8591ZM37.6327 13.883H37.9409C38.1504 13.883 38.2613 13.9791 38.2613 14.2749V14.901C38.2613 15.1993 38.1479 15.293 37.9409 15.293H37.6327V13.883ZM40.0361 14.1024H40.7806V15.8895H41.4461V11.7212H40.7806V13.5083H40.0361V11.7212H39.3829V15.8895H40.0361V14.1024ZM23.1803 11.7212H22.5123V15.293H21.7679V11.7212H21.1122V15.8895H22.8254V16.4491H23.4638V15.3053H23.1779V11.7212H23.1803ZM33.0774 15.8895H33.738L33.0725 11.7212H32.1136L31.4455 15.8895H32.047L32.1604 15.1328H32.964L33.0774 15.8895ZM32.2442 14.5683L32.5597 12.4607L32.8753 14.5683H32.2442ZM47.2512 12.3177V11.7236H45.4641V15.892H47.2512V15.2954H46.1198V14.0753H47.0171V13.4812H46.1198V12.3202H47.2512V12.3177ZM27.4744 11.6743C26.831 11.6743 26.4785 12.0564 26.4785 12.722V14.8887C26.4785 15.5543 26.831 15.9363 27.4744 15.9363C28.1178 15.9363 28.4678 15.5543 28.4678 14.8887V12.722C28.4678 12.0564 28.1178 11.6743 27.4744 11.6743ZM27.8146 14.9306C27.8146 15.2289 27.6839 15.3423 27.4744 15.3423C27.2649 15.3423 27.1342 15.2289 27.1342 14.9306V12.6825C27.1342 12.3843 27.2649 12.2709 27.4744 12.2709C27.6839 12.2709 27.8146 12.3843 27.8146 12.6825V14.9306ZM29.614 14.1024H30.3585V15.8895H31.024V11.7212H30.3585V13.5083H29.614V11.7212H28.9583V15.8895H29.614V14.1024ZM38.7987 17.3168V16.7227H37.0116V20.8886H38.7987V20.2945H37.6672V19.0743H38.567V18.4802H37.6672V17.3192H38.7987V17.3168ZM40.7633 20.8886H41.4363L40.5242 18.5788L41.4363 16.7227H40.7806L39.9227 18.5369V16.7227H39.267V20.8886H39.9227V19.6068L40.1249 19.2271L40.7633 20.8886ZM43.11 20.8886V17.3168H43.7953V16.7227H41.7715V17.3168H42.4568V20.8886H43.1125H43.11ZM46.1518 19.8582V19.3159C46.1518 18.6479 45.8314 18.2855 45.1757 18.2855H44.8676V16.7202H44.2119V20.8861H45.1757C45.8314 20.8861 46.1518 20.5237 46.1518 19.8557M44.8676 18.8796H45.1757C45.3852 18.8796 45.4961 18.9757 45.4961 19.2715V19.8976C45.4961 20.1959 45.3828 20.2896 45.1757 20.2896H44.8676V18.8796ZM34.1373 18.2904V17.7481C34.1373 17.0826 33.8169 16.7178 33.1612 16.7178H32.1974V20.8836H32.8531V19.3184H33.1637C33.8194 19.3184 34.1398 18.956 34.1398 18.288M32.8531 17.3118H33.1637C33.3707 17.3118 33.4841 17.408 33.4841 17.7038V18.3299C33.4841 18.6281 33.3707 18.7218 33.1637 18.7218H32.8531V17.3094V17.3118ZM29.6091 20.8836H30.2648V17.3118H31.0092V20.8836H31.6748V16.7178H29.6091V20.8836ZM46.529 20.8836H47.1847V16.7178H46.529V20.8836ZM35.5301 16.6685C34.8867 16.6685 34.5367 17.0505 34.5367 17.7161V19.8828C34.5367 20.5509 34.8892 20.9305 35.5301 20.9305C36.171 20.9305 36.5235 20.5509 36.5235 19.8828V17.7161C36.5235 17.0505 36.1734 16.6685 35.5301 16.6685ZM35.8703 19.9247C35.8703 20.223 35.7396 20.3364 35.5301 20.3364C35.3205 20.3364 35.1899 20.223 35.1899 19.9247V17.6742C35.1899 17.3784 35.3205 17.265 35.5301 17.265C35.7396 17.265 35.8703 17.3784 35.8703 17.6742V19.9247ZM45.9275 23.4374L45.6909 24.3544V21.7168H45.1067V25.8852H45.7796L46.3269 23.9748L46.5955 22.9518V25.8876H47.1847V21.7193H46.4649L45.9275 23.4399V23.4374ZM36.2499 21.6675C35.6065 21.6675 35.2565 22.0496 35.2565 22.7152V24.8819C35.2565 25.5499 35.6065 25.9295 36.2499 25.9295C36.8932 25.9295 37.2433 25.5499 37.2433 24.8819V22.7152C37.2433 22.0471 36.8932 21.6675 36.2499 21.6675ZM36.59 24.9238C36.59 25.2196 36.4594 25.333 36.2499 25.333C36.0403 25.333 35.9097 25.2196 35.9097 24.9238V22.6732C35.9097 22.3774 36.0428 22.2641 36.2499 22.2641C36.4569 22.2641 36.59 22.3774 36.59 22.6732V24.9238ZM33.881 21.7144H32.9172V25.8827H33.5729V24.3174H33.881C34.5367 24.3174 34.8571 23.9551 34.8571 23.287V22.7447C34.8571 22.0767 34.5367 21.7144 33.881 21.7144ZM34.2014 23.3289C34.2014 23.6272 34.088 23.7209 33.881 23.7209H33.5729V22.3109H33.881C34.0905 22.3109 34.2014 22.407 34.2014 22.7028V23.3289ZM38.673 21.6675C38.0296 21.6675 37.6968 22.0496 37.6968 22.7152V24.8819C37.6968 25.5499 38.0321 25.9295 38.673 25.9295C39.3139 25.9295 39.6491 25.5499 39.6491 24.8819V24.3273H39.0304V24.9238C39.0304 25.2196 38.8998 25.3281 38.6902 25.3281C38.4807 25.3281 38.3501 25.2196 38.3501 24.9238V22.6732C38.3501 22.3774 38.4807 22.2641 38.6902 22.2641C38.8998 22.2641 39.0304 22.3774 39.0304 22.6732V23.1219H39.6491V22.7176C39.6491 22.0496 39.3163 21.67 38.673 21.67M41.069 21.67C40.4256 21.67 40.0928 22.0521 40.0928 22.7176V24.8844C40.0928 25.5524 40.4256 25.932 41.069 25.932C41.7123 25.932 42.0451 25.5524 42.0451 24.8844V24.3297H41.4264V24.9263C41.4264 25.2221 41.2958 25.3305 41.0862 25.3305C40.8767 25.3305 40.7461 25.2221 40.7461 24.9263V22.6757C40.7461 22.3799 40.8767 22.2665 41.0862 22.2665C41.2958 22.2665 41.4264 22.3799 41.4264 22.6757V23.1243H42.0451V22.7201C42.0451 22.0521 41.7123 21.6724 41.069 21.6724M43.3343 23.4423L43.0952 24.3593V21.7217H42.511V25.8901H43.184L43.7312 23.9797L43.9999 22.9567V25.8926H44.589V21.7242H43.8692L43.3343 23.4448V23.4423Z" fill="white"/>
    <path d="M25.5651 8.43036H25.1238V7.7722H23.3638V8.43036H22.9152L22.9004 7.39998H23.1148C23.2208 7.29892 23.3071 7.14855 23.3712 6.95135C23.4353 6.75415 23.4772 6.5323 23.4945 6.28333L23.5659 5.09519H25.252V7.39752H25.5922M23.6424 7.39752H24.7886V5.46987H24.0072L23.9628 6.22171C23.9283 6.72457 23.8223 7.11651 23.6424 7.39752Z" fill="#00AECD"/>
    <path d="M27.5042 6.57667H26.4073V7.39998H27.6891V7.7722H25.9414V5.09766H27.6768V5.47234H26.4073V6.20938H27.5042" fill="#00AECD"/>
    <path d="M28.6698 5.09766L29.4414 7.14609L30.2105 5.09766H30.8119V7.7722H30.3485V6.88972L30.3953 5.70898L29.6065 7.7722H29.2738L28.4849 5.71145L28.5318 6.88972V7.7722H28.0684V5.09766" fill="#00AECD"/>
    <path d="M33.4895 6.50272C33.4895 6.76648 33.4451 6.99572 33.3539 7.19293C33.2627 7.39013 33.1345 7.54296 32.9669 7.64895C32.7993 7.75495 32.6045 7.80671 32.3852 7.80671C32.1658 7.80671 31.976 7.75495 31.8059 7.64895C31.6358 7.54296 31.5051 7.39259 31.4139 7.19539C31.3203 7.00065 31.2734 6.77387 31.2734 6.51751V6.36714C31.2734 6.10585 31.3203 5.87661 31.4115 5.67694C31.5051 5.47727 31.6333 5.32444 31.8034 5.21845C31.971 5.11245 32.1658 5.06068 32.3827 5.06068C32.5996 5.06068 32.7944 5.11245 32.962 5.21845C33.1296 5.32444 33.2602 5.47481 33.3514 5.67201C33.4451 5.86921 33.4895 6.09599 33.492 6.35728M33.0285 6.36714C33.0285 6.07134 32.9718 5.84456 32.8609 5.6868C32.75 5.52904 32.5898 5.45016 32.3852 5.45016C32.1806 5.45016 32.0277 5.52904 31.9143 5.6868C31.801 5.84456 31.7418 6.06641 31.7418 6.35482V6.50765C31.7418 6.80345 31.7985 7.03023 31.9143 7.19046C32.0277 7.35069 32.188 7.43203 32.3901 7.43203C32.5922 7.43203 32.7549 7.35315 32.8658 7.19786C32.9768 7.04009 33.0335 6.81085 33.0335 6.51011V6.36961L33.0285 6.36714Z" fill="#00AECD"/>
    <path d="M35.6515 5.47234H34.4165V7.7722H33.9531V5.09766H35.6515" fill="#00AECD"/>
    <path d="M36.501 6.7788V7.76974H36.0352V5.09519H37.0581C37.3564 5.09519 37.5955 5.17407 37.7705 5.32937C37.9455 5.48467 38.0343 5.68926 38.0343 5.94562C38.0343 6.20199 37.948 6.41151 37.7755 6.55695C37.6029 6.70238 37.3638 6.77633 37.0532 6.77633M36.501 6.40165H37.0581C37.2233 6.40165 37.349 6.36221 37.4378 6.28333C37.5265 6.20692 37.5684 6.09352 37.5684 5.94562C37.5684 5.79772 37.524 5.6868 37.4353 5.60052C37.3465 5.51424 37.2258 5.46987 37.0729 5.46741H36.501V6.40165Z" fill="#00AECD"/>
    <path d="M39.753 7.14855H38.7176L38.5007 7.7722H38.0176L39.0282 5.09766H39.4448L40.4579 7.7722H39.9723M38.8483 6.77387H39.6223L39.2353 5.66461L38.8483 6.77387Z" fill="#00AECD"/>
    <path d="M42.1383 5.35156H42.1777C42.3848 5.35156 42.5696 5.39839 42.7397 5.4896C42.9073 5.58327 43.038 5.71145 43.1317 5.87907C43.2253 6.04669 43.2722 6.2365 43.2722 6.44602C43.2722 6.65555 43.2253 6.84289 43.1317 7.00805C43.038 7.1732 42.9073 7.30385 42.7422 7.39506C42.577 7.48626 42.3897 7.5331 42.1851 7.53556H42.1358V7.88313H41.6896V7.53556H41.6453C41.4382 7.53556 41.2508 7.48873 41.0808 7.39752C40.9131 7.30385 40.7825 7.17567 40.6888 7.01051C40.5952 6.84536 40.5508 6.65802 40.5508 6.45095C40.5508 6.24389 40.5976 6.05409 40.6913 5.884C40.785 5.71638 40.9156 5.58573 41.0832 5.49206C41.2508 5.39839 41.4407 5.35156 41.6477 5.35156H41.6921V4.98673H42.1383M41.6477 5.72624C41.4407 5.72624 41.2829 5.79033 41.1646 5.91851C41.0487 6.04669 40.992 6.22417 40.992 6.45095C40.992 6.67774 41.0487 6.84536 41.1646 6.97107C41.2804 7.09925 41.4431 7.16088 41.6526 7.16088H41.6921V5.72624H41.6477ZM42.1383 5.72624V7.16088H42.1826C42.3897 7.16088 42.5474 7.09679 42.6633 6.96861C42.7767 6.84043 42.8359 6.66541 42.8359 6.44602C42.8359 6.22664 42.7792 6.04669 42.6633 5.91851C42.5499 5.79033 42.3872 5.72624 42.1777 5.72624H42.1383Z" fill="#00AECD"/>
    <path d="M45.3053 5.09766H45.7687V7.7722H45.3053V5.86674L44.1319 7.7722H43.666V5.09766H44.1319V7.00312" fill="#00AECD"/>
    <path d="M47.6148 7.7722V6.77387H47.0971L46.5819 7.7722H46.084L46.6805 6.63583C46.3699 6.48793 46.2146 6.24882 46.2146 5.91358C46.2146 5.65722 46.2984 5.45755 46.4685 5.31458C46.6386 5.17161 46.8703 5.10012 47.1735 5.09766H48.0831V7.7722M46.6781 5.9333C46.6781 6.08366 46.72 6.20198 46.8062 6.2858C46.89 6.36961 47.0182 6.41151 47.1858 6.41151H47.6172V5.46987H47.1858C47.0133 5.46987 46.8876 5.51178 46.8038 5.59313C46.72 5.67694 46.6781 5.78786 46.6781 5.93083" fill="#00AECD"/>
  </g>
  <defs>
    <clipPath id="clip0_4602_3313">
      <rect width="53.3036" height="44.077" fill="white"/>
    </clipPath>
  </defs>
</svg>