<svg xmlns="http://www.w3.org/2000/svg" width="46" height="34" viewBox="0 0 46 34" fill="none">
  <g clip-path="url(#clip0_4602_3307)">
    <path fill-rule="evenodd" clip-rule="evenodd" d="M0.194345 4.96971C0.194345 2.23177 2.42152 3.36175e-06 5.15408 3.36175e-06V2.10834C3.58312 2.10834 2.39424 3.39503 2.39424 4.96951C2.39424 6.54419 3.58298 7.83127 5.15408 7.83127V9.93922C2.42152 9.93922 0.194499 7.70784 0.194499 4.96951L0.194345 4.96971ZM30.5528 0.109981H36.6238V2.21832H34.6881V9.82963H32.4882V2.21832H30.5528V0.109981ZM26.9125 4.66866C27.6089 4.66866 28.1418 4.06616 28.1418 3.40927C28.1418 2.75218 27.6226 2.16333 26.9125 2.16333V4.66866ZM26.9396 0.109981C28.8386 0.109981 30.2594 1.58813 30.2594 3.40927C30.2594 5.22981 28.8386 6.70836 26.9396 6.70836H26.9125V9.82963H24.7123V0.109981H26.9396ZM18.9111 7.83127C20.4824 7.83127 21.6712 6.54439 21.6712 4.96971C21.6712 3.39562 20.4824 2.10854 18.9111 2.10854C17.34 2.10854 16.1512 3.39562 16.1512 4.96971C16.1512 6.54439 17.3399 7.83147 18.9111 7.83147V7.83127ZM18.9111 0.000201354C21.6439 0.000201354 23.8707 2.23217 23.8707 4.96991C23.8707 7.70784 21.6439 9.93941 18.9111 9.93941C16.1788 9.93941 13.9518 7.70784 13.9518 4.96971C13.9518 2.23217 16.1788 0.000201354 18.9111 0.000201354ZM6.22352 9.82963V0.109981H13.1103V9.82963H10.91V2.21832H8.4234V9.82963H6.22366H6.22352ZM42.197 18.321V15.6774L40.672 18.321H42.197ZM41.9814 11.7736H44.3965V21.4939H42.197V20.2091H39.5896L38.8449 21.4939H36.3807L41.9814 11.7736ZM21.0772 16.3327C21.7738 16.3327 22.3065 15.7304 22.3065 15.0732C22.3065 14.416 21.7877 13.8274 21.0772 13.8274V16.3327ZM24.4243 15.0732C24.4243 16.8939 23.0034 18.3728 21.1043 18.3728H21.0772V21.4941H18.8771V11.7736H21.1043C23.0034 11.7736 24.4243 13.2524 24.4243 15.0731V15.0732ZM13.0759 19.4956C14.6474 19.4956 15.8359 18.2087 15.8359 16.6342C15.8359 15.0599 14.6474 13.7726 13.0759 13.7726C11.505 13.7726 10.3163 15.0599 10.3163 16.6343C10.3163 18.2087 11.5049 19.4957 13.0759 19.4957V19.4956ZM13.0759 11.6646C15.8085 11.6646 18.0355 13.8957 18.0355 16.6342C18.0355 19.3721 15.8087 21.6037 13.0759 21.6037C10.3434 21.6037 8.11652 19.3721 8.11652 16.6341C8.11652 13.8957 10.3434 11.6644 13.0759 11.6644V11.6646ZM30.604 17.3206L33.7994 11.7738L36.0361 11.7736V21.4939H33.8362V15.9865L30.6633 21.4939H28.4041V16.0177L25.2488 21.4939H22.7842L28.3851 11.7736H30.604V17.3204V17.3206ZM5.0748 15.5801V11.7736H7.27486V21.4939H5.0748V17.6881H2.58856V21.4939H0.388512V11.7736H2.58856V15.58L5.0748 15.5801ZM25.7061 27.9294C26.5258 28.4086 27.0313 29.074 27.0313 30.183C27.0313 32.0854 25.483 33.142 23.6294 33.1582H22.3856V31.1057H23.6294C24.4936 31.0999 24.8724 30.6175 24.8724 30.0188C24.8724 29.4025 24.4491 29.0795 23.7388 29.0795H22.7729V27.231H23.6017C24.1898 27.231 24.5721 26.9081 24.5721 26.347C24.5721 25.8396 24.347 25.5165 23.6294 25.4488H22.3856V23.4381H23.6294C25.2007 23.4381 26.7032 24.1835 26.7032 25.9363C26.7032 26.7436 26.4848 27.3132 25.7063 27.9294H25.7061ZM15.7871 29.0064L18.9952 23.4381L21.2192 23.4381V33.1581L19.0193 33.1582V27.6708L15.8576 33.1582H13.587V23.4381L15.7871 23.4381V29.0063V29.0064ZM41.4509 23.4381H43.6748V33.1581L41.4748 33.1582V27.6708L38.313 33.1582H36.0429V23.4381L38.2426 23.4381V29.0063L41.4509 23.4381ZM32.6761 27.2443V23.4381L34.8763 23.4381V33.1581L32.6761 33.1582V29.3523H30.1894V33.158H27.9895V23.438H30.1894V27.2442H32.6759L32.6761 27.2443ZM12.5576 23.4381L9.95049 27.9623L12.9442 33.158H10.4795L7.57302 28.1133V33.158H5.3732V28.1133L2.46648 33.158H0.00195312L2.99559 27.9623L0.388358 23.4379L2.85296 23.438L5.37336 27.8122V23.438H7.57302V27.8122L10.0931 23.438H12.5576V23.4381Z" fill="#383D40"/>
    <path fill-rule="evenodd" clip-rule="evenodd" d="M45.3367 4.96833L43.5816 8.01384H41.4493L42.6604 5.91222H36.625V4.02383H42.6604L41.4493 1.92261H43.5816L45.3367 4.96833Z" fill="#383D40"/>
  </g>
  <defs>
    <clipPath id="clip0_4602_3307">
      <rect width="45.3333" height="33.1582" fill="white"/>
    </clipPath>
  </defs>
</svg>