<svg xmlns="http://www.w3.org/2000/svg" width="78" height="80" fill="none">
  <path d="M52.8273 27.2822c0-.3381-.1343-.6624-.3734-.9015-.2391-.2391-.5634-.3735-.9016-.3735h-1.6154c-.193-.5982-.4344-1.1799-.7216-1.7391l1.1436-1.1436c.2391-.2391.3733-.5634.3733-.9015 0-.338-.1342-.6623-.3733-.9014l-3.278-3.278c-.2391-.239-.5633-.3733-.9014-.3733-.3381 0-.6623.1343-.9014.3733l-1.1437 1.1437c-.5592-.2872-1.1408-.5285-1.7391-.7217v-1.6154c0-.3382-.1343-.6625-.3734-.9016-.2392-.2391-.5635-.3734-.9016-.3734h-4.6359c-.3382 0-.6625.1343-.9016.3734-.2391.2391-.3734.5634-.3734.9016v1.6154c-.5983.1931-1.1799.4344-1.7391.7217l-1.1437-1.1437c-.2391-.239-.5633-.3733-.9014-.3733-.3381 0-.6623.1343-.9014.3733l-3.2781 3.278c-.239.2391-.3733.5634-.3733.9014 0 .3381.1343.6624.3733.9015l1.1437 1.1436c-.2871.5593-.5285 1.1409-.7216 1.7391h-1.6155c-.3381 0-.6624.1344-.9015.3735-.2391.2391-.3735.5634-.3735.9015v4.6359c0 .3382.1344.6625.3735.9016.2391.2391.5634.3734.9015.3734h1.6155c.193.5983.4344 1.1799.7216 1.7391l-1.1437 1.1437c-.239.2391-.3733.5634-.3733.9014 0 .3381.1343.6624.3733.9015l3.2781 3.278c.2391.239.5633.3733.9014.3733.3381 0 .6623-.1343.9014-.3733l1.1437-1.1437c.5592.2872 1.1408.5285 1.7391.7217v1.6154c0 .3381.1343.6625.3734.9016.2391.2391.5634.3734.9016.3734h4.6359c.3381 0 .6624-.1343.9016-.3734.2391-.2391.3734-.5635.3734-.9016v-1.6154c.5983-.1931 1.1799-.4344 1.7391-.7217l1.1437 1.1437c.2391.239.5633.3733.9014.3733.3381 0 .6623-.1343.9014-.3733l3.278-3.278c.2391-.2391.3733-.5634.3733-.9015 0-.338-.1342-.6623-.3733-.9014l-1.1436-1.1437c.2871-.5592.5285-1.1408.7216-1.7391h1.6154c.3382 0 .6625-.1343.9016-.3734.2391-.2391.3734-.5634.3734-.9016v-4.6359Zm-2.55 3.3609h-.4437c-.5188.004-1.0227.1736-1.4383.4842-.4156.3105-.7211.7458-.872 1.2422-.1572.4942-.3564.9741-.5954 1.4344-.2455.458-.338.9826-.2639 1.4969.0741.5144.3109.9915.6757 1.3616l.315.3149-1.4752 1.4752-.3149-.3149c-.3699-.3652-.8471-.6022-1.3615-.6763-.5145-.0741-1.0392.0186-1.4971.2645-.4604.2388-.9402.438-1.4344.5954-.4964.1508-.9316.4563-1.2422.8719-.3105.4156-.4801.9196-.4841 1.4384v.4437h-2.0859v-.4437c-.004-.5188-.1736-1.0228-.4842-1.4384-.3105-.4156-.7457-.7211-1.2422-.8719-.4942-.1573-.974-.3565-1.4343-.5954-.4581-.2453-.9826-.3377-1.4969-.2636-.5144.0741-.9915.3108-1.3617.6754l-.3149.3149-1.4752-1.4752.3149-.3149c.365-.37.6019-.8471.676-1.3615.0742-.5144-.0184-1.0391-.2641-1.497-.2388-.4604-.438-.9403-.5955-1.4344-.1508-.4964-.4563-.9317-.8719-1.2422-.4156-.3106-.9196-.4802-1.4384-.4842h-.4437v-2.0859h.4437c.5188-.0039 1.0228-.1735 1.4384-.4841.4156-.3106.7211-.7458.8719-1.2422.1573-.4942.3565-.9741.5955-1.4344.2455-.458.3379-.9826.2638-1.4969-.0741-.5144-.3108-.9915-.6757-1.3616l-.3149-.315 1.4752-1.4751.3149.3149c.3699.3652.8471.6022 1.3615.6763.5145.0741 1.0392-.0186 1.4971-.2645.4603-.2388.9402-.438 1.4343-.5954.4965-.1508.9317-.4563 1.2422-.8719.3106-.4156.4802-.9196.4842-1.4384v-.4437h2.0859v.4437c.004.5188.1736 1.0228.4841 1.4384.3106.4156.7458.7211 1.2422.8719.4942.1573.9741.3565 1.4344.5954.458.2455.9826.338 1.497.2639.5143-.0741.9915-.3109 1.3616-.6757l.3149-.3149 1.4752 1.4751-.315.315c-.3649.37-.6018.8471-.676 1.3615-.0741.5144.0185 1.0391.2642 1.497.2388.4604.438.9402.5954 1.4344.1509.4964.4564.9316.872 1.2422s.9195.4802 1.4383.4841h.4437v2.0859Z" fill="#1652EE"/>
  <path d="M38.8026 21.9502c-1.513 0-2.9921.4487-4.2501 1.2893-1.2581.8405-2.2386 2.0353-2.8176 3.4332-.579 1.3978-.7305 2.936-.4353 4.4199.2952 1.484 1.0238 2.8471 2.0936 3.917 1.0699 1.0698 2.433 1.7984 3.917 2.0936 1.4839.2952 3.0221.1437 4.4199-.4353 1.3979-.579 2.5926-1.5596 3.4332-2.8176.8406-1.258 1.2893-2.7371 1.2893-4.2501-.0024-2.0282-.8091-3.9726-2.2432-5.4068-1.4342-1.4341-3.3786-2.2408-5.4068-2.2432Zm0 12.75c-1.0087 0-1.9947-.2991-2.8334-.8595-.8387-.5604-1.4924-1.3569-1.8784-2.2888-.386-.9319-.487-1.9574-.2902-2.9467.1968-.9893.6825-1.898 1.3958-2.6112.7132-.7133 1.6219-1.199 2.6112-1.3958.9893-.1968 2.0148-.0958 2.9467.2902.9319.386 1.7284 1.0397 2.2888 1.8784.5604.8387.8595 1.8247.8595 2.8334-.0017 1.3521-.5396 2.6483-1.4956 3.6044-.9561.956-2.2523 1.4939-3.6044 1.4956ZM1.82759 79.3252H75.7776c.211 0 .4187-.0524.6044-.1524.1858-.1001.3438-.2447.46-.4208.1161-.1762.1867-.3784.2054-.5886.0188-.2101-.0149-.4216-.0981-.6156l-7.65-17.85c-.0983-.2293-.2617-.4247-.47-.562-.2082-.1374-.4522-.2106-.7017-.2106h-15.3v2.55h14.4585l6.5573 15.3H3.76177l6.55603-15.3h14.4598v-2.55H9.47759c-.24948 0-.49347.0732-.70174.2106-.20828.1373-.37168.3327-.46998.562l-7.650001 17.85c-.083129.194-.116835.4055-.098095.6156.01874.2102.089339.4124.205469.5886.116129.1761.274157.3207.459917.4208.18576.1.39345.1524.60443.1524Zm33.15001-31.875h2.55v7.65h-2.55v-7.65Z" fill="#1652EE"/>
  <path d="M34.9781 57.6502h2.55v2.55h-2.55v-2.55Zm0 5.1h2.55v6.375h-2.55v-6.375Zm5.1-15.3h2.55v8.925h-2.55v-8.925Zm0 11.475h2.55v10.2h-2.55v-10.2Zm5.1-8.925h2.55v11.475h-2.55v-11.475Zm-15.3 14.025h2.55v2.55h-2.55v-2.55Zm0-15.3h2.55v12.75h-2.55v-12.75Zm15.3 15.3h2.55v2.55h-2.55v-2.55Zm14.025-59.92505c-.3381 0-.6624.13433-.9015.37344-.2391.2391-.3735.56341-.3735.90156v7.64995c0 .3382.1344.6625.3735.9016.2391.2391.5634.3734.9015.3734h3.825v2.55h-2.55c-.3381 0-.6624.1344-.9015.3735-.2391.2391-.3735.5634-.3735.9015v6.375c0 .3382.1344.6625.3735.9016.2391.2391.5634.3734.9015.3734h6.375c.3382 0 .6625-.1343.9016-.3734.2391-.2391.3734-.5634.3734-.9016v-2.55h6.375c.3382 0 .6625-.1343.9016-.3734.2391-.2391.3734-.5634.3734-.9016v-10.2c0-.3381-.1343-.6624-.3734-.90151-.2391-.23911-.5634-.37344-.9016-.37344h-6.375v-3.825c0-.33815-.1343-.66246-.3734-.90156-.2391-.23911-.5634-.37344-.9016-.37344h-7.65Zm1.275 7.64995V6.65015h5.1v2.55h-1.275c-.3381 0-.6624.13433-.9015.37344-.2391.23911-.3735.56341-.3735.90151v1.275h-2.55Zm5.1 11.475h-3.825v-3.825h1.275v1.275c0 .3382.1344.6625.3735.9016.2391.2391.5634.3734.9015.3734h1.275v1.275Zm7.65-11.475v7.65h-7.65v-7.65h7.65Zm-30.6-1.275c.3382 0 .6625-.1343.9016-.3734.2391-.2391.3734-.5634.3734-.90155v-7.65c0-.33815-.1343-.662456-.3734-.901565-.2391-.239109-.5634-.373439-.9016-.373439h-7.65c-.3381 0-.6624.13433-.9015.373439-.2391.239109-.3735.563415-.3735.901565v7.65c0 .33815.1344.66245.3735.90155.2391.2391.5634.3734.9015.3734h7.65Zm-6.375-7.64995h5.1v5.1h-5.1v-5.1ZM3.10313 38.5251h7.64997c.3382 0 .6625-.1343.9016-.3734.2391-.2391.3734-.5634.3734-.9016v-3.825h6.375c.3382 0 .6625-.1343.9016-.3734.2391-.2391.3734-.5634.3734-.9016v-10.2c0-.3381-.1343-.6624-.3734-.9015-.2391-.2391-.5634-.3735-.9016-.3735H8.20313c-.33816 0-.66246.1344-.90157.3735-.2391.2391-.37343.5634-.37343.9015v6.375h-3.825c-.33816 0-.66246.1344-.90157.3735-.23911.2391-.37343.5634-.37344.9015v7.65c.00001.3382.13433.6625.37344.9016.23911.2391.56341.3734.90157.3734Zm6.375-15.3h7.64997v7.65H9.47813v-7.65Zm-5.1 7.65h2.55v1.275c0 .3382.13433.6625.37343.9016.23911.2391.56341.3734.90157.3734h1.275v2.55h-5.1v-5.1Zm6.37497-14.025h6.375c.3382 0 .6625-.1343.9016-.3734.2391-.2391.3734-.5634.3734-.9016V9.20015c0-.33815-.1343-.66245-.3734-.90156-.2391-.23911-.5634-.37344-.9016-.37344h-6.375c-.3381 0-.6624.13433-.90154.37344-.2391.23911-.37343.56341-.37343.90156v6.37495c0 .3382.13433.6625.37343.9016.23914.2391.56344.3734.90154.3734Zm1.275-6.375h3.825v3.825h-3.825v-3.825Zm45.9 28.05c-.3381 0-.6624.1344-.9015.3735-.2391.2391-.3735.5634-.3735.9015v5.1c0 .3382.1344.6625.3735.9016.2391.2391.5634.3734.9015.3734h5.1c.3382 0 .6625-.1343.9016-.3734.2391-.2391.3734-.5634.3734-.9016v-5.1c0-.3381-.1343-.6624-.3734-.9015-.2391-.2391-.5634-.3735-.9016-.3735h-5.1Zm3.825 5.1h-2.55v-2.55h2.55v2.55Z" fill="#1652EE"/>
  <path d="M12.9121 65.3002h9.3164v-2.55h-10.2c-.2597-.0001-.5132.079-.7267.2269-.2135.1479-.3768.3574-.4679.6006l-3.82504 10.2c-.07233.193-.09682.4006-.07136.6051.02547.2045.10011.3997.21755.5691.11744.1693.27418.3076.45678.4031.1826.0956.38563.1454.5917.1452H69.4035c.2061.0002.4091-.0496.5917-.1452.1826-.0955.3394-.2338.4568-.4031.1175-.1694.1921-.3646.2176-.5691.0254-.2045.0009-.4121-.0714-.6051l-3.825-10.2c-.0911-.2432-.2544-.4527-.4679-.6006-.2135-.1479-.4671-.227-.7268-.2269h-10.2v2.55h9.3165l2.8687 7.65H10.0434l2.8687-7.65Z" fill="#1652EE"/>
</svg>