<svg xmlns="http://www.w3.org/2000/svg" width="82" height="66" fill="none"><path d="M80.876 15.865c-1.754-2.245-5.15-2.766-7.568-1.168l-9.808 6.43H36.992a12.034 12.034 0 0 0-5.791-1.489h-12.87L8.49 12.896a5.547 5.547 0 0 0-1.935-.842 5.75 5.75 0 0 0-2.134-.072c-1.444.22-2.706.95-3.55 2.066a4.777 4.777 0 0 0-.927 3.568c.184 1.255.868 2.4 1.917 3.208l15.784 12.048V59.99c0 1.486.636 2.91 1.766 3.962 1.13 1.05 2.66 1.642 4.258 1.643a6.368 6.368 0 0 0 2.466-.502 5.976 5.976 0 0 0 2.024-1.403c.069.069.12.149.191.215.572.535 1.253.96 2.002 1.25.75.289 1.554.437 2.365.436 1.635-.002 3.202-.606 4.358-1.681 1.155-1.075 1.805-2.533 1.807-4.053V39.042H45.8V60.15c.001 1.442.618 2.824 1.714 3.844 1.095 1.02 2.581 1.593 4.131 1.595.79 0 1.57-.15 2.295-.441a5.841 5.841 0 0 0 1.922-1.248c.047.05.084.106.135.154 1.062.98 2.496 1.531 3.992 1.534 1.495-.002 2.93-.555 3.988-1.54 1.057-.983 1.653-2.317 1.655-3.708V32.18l13.96-9.197a5.193 5.193 0 0 0 1.704-1.812 4.778 4.778 0 0 0 .611-2.34c0-1.088-.36-2.116-1.031-2.966ZM38.353 36.12l-2.587-5.706a1.521 1.521 0 0 0-.855-.786 1.678 1.678 0 0 0-1.202.007c-.383.15-.687.437-.844.796-.157.358-.154.76.008 1.117l2.87 6.327v21.98a2.68 2.68 0 0 1-.514 1.563 2.993 2.993 0 0 1-1.36 1.035 3.24 3.24 0 0 1-1.75.158 3.104 3.104 0 0 1-1.549-.773 2.728 2.728 0 0 1-.876-1.969V45.316c0-.387-.167-.759-.462-1.032a1.633 1.633 0 0 0-1.112-.426c-.416.001-.815.156-1.11.43a1.41 1.41 0 0 0-.457 1.034v14.534l.002.014v.12c0 1.48-1.296 2.684-2.886 2.684s-2.885-1.205-2.885-2.684V32.183c0-.438-.21-.851-.573-1.13L3.853 18.566a2.079 2.079 0 0 1-.804-1.343 1.999 1.999 0 0 1 .388-1.494 2.276 2.276 0 0 1 1.488-.866 2.376 2.376 0 0 1 1.703.383l10.255 7.03c.27.185.597.284.933.284H31.2c3.383 0 6.392 1.882 7.717 4.892l2.234 4.18c.13.244.33.449.579.592.248.143.535.219.827.219H45.8v3.68l-7.447-.002Zm39.432-15.528-14.63 9.638a1.498 1.498 0 0 0-.488.521 1.379 1.379 0 0 0-.175.672V60.34c0 .459-.146.908-.42 1.29s-.662.68-1.118.858a2.68 2.68 0 0 1-1.441.14 2.573 2.573 0 0 1-1.284-.627 2.288 2.288 0 0 1-.742-1.661v-.133c0-.02.006-.038.006-.057V46.579a1.41 1.41 0 0 0-.46-1.032 1.632 1.632 0 0 0-1.11-.428h-.006c-.417 0-.816.154-1.11.428a1.41 1.41 0 0 0-.46 1.032v13.629a2.438 2.438 0 0 1-.811 1.742 2.814 2.814 0 0 1-1.889.72 2.816 2.816 0 0 1-1.914-.739 2.434 2.434 0 0 1-.794-1.78V30.225a1.41 1.41 0 0 0-.46-1.033 1.632 1.632 0 0 0-1.896-.22 1.494 1.494 0 0 0-.564.55h-2.49l-1.751-3.27a10.47 10.47 0 0 0-1.345-2.204h23.565c.323 0 .64-.092.904-.266l10.219-6.7a2.404 2.404 0 0 1 3.22.509c.353.444.427.92.427 1.241 0 .704-.365 1.361-.983 1.761Z" fill="#1652EE"/><path d="M26.852 17.523c5.133 0 9.308-3.884 9.308-8.659S31.985.205 26.852.205c-5.134 0-9.309 3.884-9.309 8.66 0 4.774 4.175 8.658 9.309 8.658Zm0-14.397c3.401 0 6.169 2.574 6.169 5.738 0 3.165-2.768 5.739-6.17 5.739-3.401 0-6.168-2.574-6.168-5.739 0-3.164 2.767-5.738 6.169-5.738ZM55.923 18.8c5.133 0 9.309-3.885 9.309-8.66 0-4.774-4.176-8.659-9.309-8.659-5.133 0-9.308 3.885-9.308 8.66 0 4.774 4.175 8.659 9.308 8.659Zm0-14.398c3.402 0 6.17 2.574 6.17 5.738 0 3.165-2.768 5.74-6.17 5.74-3.401 0-6.169-2.575-6.169-5.74 0-3.164 2.768-5.738 6.17-5.738Z" fill="#1652EE"/></svg>