<svg xmlns="http://www.w3.org/2000/svg" width="82" height="68" fill="none"><path d="M60.576 44.784c3.788-.002 11.78-.692 18.96-5.795a1.596 1.596 0 0 0 .614-1.744c-.77-2.662-2.94-9.843-5.656-16.15" fill="#fff"/><path d="M60.576 44.784c3.788-.002 11.78-.692 18.96-5.795a1.596 1.596 0 0 0 .614-1.744c-.77-2.662-2.94-9.843-5.656-16.15" stroke="#1652EE" stroke-width="2.6" stroke-miterlimit="10" stroke-linecap="round" stroke-linejoin="round"/><path d="M72.244 16.38c-1.43-2.656-2.936-4.77-4.422-5.723a2.14 2.14 0 0 0-.896-.317l-4.982-.614a3.347 3.347 0 0 0-3.65 2.482l-.755 2.904a3.35 3.35 0 0 0 2.181 4.019l2.756.918a2.362 2.362 0 0 0 2.49-.645c.252-.275.444-.601.561-.956l3.175 13.044c-1.183-.629-2.882-.985-5.166-.249m5.166.249s1.346.565 2.034 2.368l-2.034-2.368Zm-50.367-.225c-2.32-.767-4.042-.41-5.238.225l3.175-13.044c.117.355.309.68.562.956a2.363 2.363 0 0 0 2.489.645l2.756-.918a3.35 3.35 0 0 0 2.181-4.019l-.754-2.904a3.347 3.347 0 0 0-3.65-2.482l-4.983.614a2.14 2.14 0 0 0-.896.317C8.626 14.093 2.996 32.587 1.648 37.244c-.188.653.06 1.35.615 1.745a29.76 29.76 0 0 0 6.114 3.33m4.968 1.557c3.254.75 6.087.909 7.917.907l-7.917-.907Z" fill="#fff"/><path d="M72.244 16.38c-1.43-2.656-2.936-4.77-4.422-5.723a2.14 2.14 0 0 0-.896-.317l-4.982-.614a3.347 3.347 0 0 0-3.65 2.482l-.755 2.904a3.35 3.35 0 0 0 2.181 4.019l2.756.918a2.362 2.362 0 0 0 2.49-.645c.252-.275.444-.601.561-.956l3.175 13.044c-1.183-.629-2.882-.985-5.166-.249m5.166.249s1.346.565 2.034 2.368m-52.401-2.593c-2.32-.767-4.042-.41-5.238.225l3.175-13.044c.117.355.309.68.562.956a2.363 2.363 0 0 0 2.489.645l2.756-.918a3.35 3.35 0 0 0 2.181-4.019l-.754-2.904a3.347 3.347 0 0 0-3.65-2.482l-4.983.614c-.318.04-.626.143-.896.317-5.351 3.436-10.981 21.93-12.329 26.587-.188.653.06 1.35.615 1.745a29.76 29.76 0 0 0 6.114 3.33m4.968 1.557c3.254.75 6.087.909 7.917.907" stroke="#1652EE" stroke-width="2.6" stroke-miterlimit="10" stroke-linecap="round" stroke-linejoin="round"/><path d="m55.094 49.9 4.967-4.967c5.17-5.17 5.17-13.552 0-18.721-5.17-5.17-13.551-5.17-18.721 0l-.441.44-.441-.44c-5.17-5.17-13.552-5.17-18.721 0-5.17 5.17-5.17 13.551 0 18.72l18 18a1.644 1.644 0 0 0 2.324 0l9.36-9.36m-38.325-22.08s-1.345.565-2.034 2.368M47.04 5.952h-2.68V3.27c0-.874-.71-1.583-1.583-1.583h-3.755c-.873 0-1.582.709-1.582 1.583v2.68h-2.68c-.875 0-1.583.709-1.583 1.583v3.754c0 .874.708 1.582 1.582 1.582h2.681v2.682c0 .873.709 1.582 1.582 1.582h3.755c.874 0 1.582-.709 1.582-1.582V12.87h2.681c.874 0 1.582-.708 1.582-1.582V7.534c0-.874-.708-1.582-1.582-1.582Z" stroke="#1652EE" stroke-width="2.6" stroke-miterlimit="10" stroke-linecap="round" stroke-linejoin="round"/><path d="M36.163 44.663a5.595 5.595 0 0 0 4.736 2.61 5.595 5.595 0 0 0 4.735-2.61m-10.574-6.13v.812m11.678-.813v.813M21.41 54.929h-2.681v-2.681c0-.874-.709-1.582-1.582-1.582h-3.755c-.874 0-1.582.708-1.582 1.582v2.681H9.129c-.874 0-1.582.708-1.582 1.582v3.755c0 .874.708 1.582 1.582 1.582h2.681v2.681c0 .874.708 1.582 1.582 1.582h3.755c.874 0 1.582-.708 1.582-1.582v-2.681h2.68c.875 0 1.583-.708 1.583-1.582V56.51c0-.874-.709-1.582-1.582-1.582Zm51.259 0h-2.681v-2.681c0-.874-.709-1.582-1.582-1.582H64.65c-.874 0-1.582.708-1.582 1.582v2.681h-2.681c-.874 0-1.582.708-1.582 1.582v3.755c0 .874.708 1.582 1.582 1.582h2.68v2.681c0 .874.71 1.582 1.583 1.582h3.755c.873 0 1.582-.708 1.582-1.582v-2.681h2.68c.875 0 1.583-.708 1.583-1.582V56.51c0-.874-.708-1.582-1.582-1.582Z" stroke="#1652EE" stroke-width="2.6" stroke-miterlimit="10" stroke-linecap="round" stroke-linejoin="round"/></svg>