<svg xmlns="http://www.w3.org/2000/svg" width="73" height="82" fill="none">
  <path d="M68.4579 52.9611V29.0389c2.542-.5817 4.4449-2.8608 4.4449-5.5766 0-3.1572-2.5659-5.7263-5.7215-5.7263-1.6528 0-3.1429.706-4.1884 1.8312l-10.361-5.9845-10.3578-5.97977c.1642-.53231.2534-1.09809.2534-1.68459 0-3.15562-2.5659-5.721563-5.7215-5.721563-3.1572 0-5.7264 2.565943-5.7264 5.721563 0 .5865.0893 1.15069.2534 1.68459L20.9753 13.5827l-10.3594 5.9829c-1.04551-1.1252-2.53726-1.8296-4.19157-1.8296-3.15563 0-5.721564 2.5691-5.721564 5.7263 0 2.7158 1.902934 4.9949 4.444964 5.5766v23.9222c-2.54362.5817-4.446558 2.8607-4.446558 5.5765 0 3.1556 2.565938 5.7216 5.721558 5.7216 1.65432 0 3.14607-.7061 4.19157-1.8297l10.3594 5.983 10.3578 5.9797c-.1682.5452-.2536 1.1125-.2535 1.683 0 3.1572 2.5692 5.7264 5.7264 5.7264 3.1556 0 5.7216-2.5692 5.7216-5.7264 0-.5865-.0893-1.1507-.2535-1.6846l10.3594-5.9781 10.361-5.983c1.0455 1.1252 2.5372 1.8313 4.19 1.8313 3.1556 0 5.7215-2.566 5.7215-5.7216 0-2.7174-1.9029-4.9964-4.4465-5.5781Zm-5.465 1.6861-12.5556-7.2499V34.6011l12.554-7.2468c.7682.8271 1.777 1.4264 2.9134 1.6862v23.9222c-1.1364.2581-2.1452.8574-2.9118 1.6845Zm-26.1885-.349c-6.3447 0-11.0845-2.4432-11.0845-4.6282v-4.3621c.5243.3809 1.122.7347 1.7945 1.055 2.5022 1.1953 5.8013 1.8536 9.29 1.8536 3.4887 0 6.7862-.6583 9.2884-1.8536.6709-.3203 1.2686-.6741 1.7913-1.0534V49.67c0 2.185-4.7382 4.6282-11.0797 4.6282Zm-26.1885.3475c-.78146-.8411-1.79756-1.428-2.91657-1.6846V29.0389c1.13794-.2598 2.14678-.8591 2.91657-1.6846l12.5524 7.2452v12.7962l-12.5524 7.25Zm26.1885-26.944c6.3415 0 11.0797 2.4432 11.0797 4.6283 0 2.1834-4.7382 4.6234-11.0797 4.6234-6.3447 0-11.0845-2.4416-11.0845-4.6234.0016-2.1851 4.7414-4.6283 11.0845-4.6283Zm-11.0829 8.8916c.5243.3809 1.1267.7347 1.8009 1.0566 2.507 1.1969 5.8044 1.8567 9.2836 1.8567 3.4775 0 6.7718-.6598 9.2788-1.8567.6741-.3219 1.275-.6757 1.8009-1.0566v4.4433c0 2.1851-4.7382 4.6283-11.0797 4.6283-6.3447 0-11.0845-2.4432-11.0845-4.6283v-4.4433Zm41.4614-16.3041c1.7467 0 3.1699 1.4232 3.1699 3.1731 0 1.7468-1.4216 3.1684-3.1699 3.1684-1.7484 0-3.17-1.4216-3.17-3.1684 0-1.7499 1.4216-3.1731 3.17-3.1731Zm-15.8276-4.496 10.3578 5.983c-.1642.5339-.2534 1.0996-.2534 1.6861 0 .5849.0893 1.1491.2518 1.6814l-11.3268 6.5376c-.2868-1.8328-1.7882-3.4744-4.3015-4.6745-2.1978-1.0502-5.0012-1.6861-8.0038-1.8264V11.5012c1.1363-.2597 2.1468-.8606 2.9134-1.68773l10.3625 5.97973ZM36.8044 2.74997c1.7467 0 3.17 1.42162 3.17 3.16837 0 1.74994-1.4217 3.17316-3.17 3.17316-1.7499 0-3.1732-1.42322-3.1732-3.17316 0-1.74675 1.4233-3.16837 3.1732-3.16837ZM22.2503 15.7948l10.3609-5.98133c.7698.82713 1.7787 1.42803 2.9182 1.68773v13.6792c-3.0026.1403-5.8092.7778-8.007 1.8264-2.5134 1.2001-4.0147 2.8433-4.3015 4.6745l-11.3236-6.536c.1681-.5451.2535-1.1124.2534-1.683 0-.5881-.0893-1.1538-.255-1.6877l10.3546-5.9798ZM3.25436 23.4623c0-1.7499 1.42162-3.1731 3.16997-3.1731 1.74994 0 3.17315 1.4232 3.17315 3.1731 0 1.7468-1.42321 3.1684-3.17315 3.1684-1.74835 0-3.16997-1.4216-3.16997-3.1684Zm3.16837 38.2453c-1.74675 0-3.16996-1.4217-3.16996-3.1684 0-1.7468 1.42162-3.1684 3.16996-3.1684 1.74994 0 3.17316 1.4216 3.17316 3.1684 0 1.7467-1.42322 3.1684-3.17316 3.1684Zm15.82757 4.4943-10.3546-5.9797c.1641-.5323.2534-1.0981.2534-1.6846s-.0893-1.1507-.2534-1.6846l11.3252-6.5408c.2836 1.8376 1.7802 3.4824 4.2935 4.6841 2.1946 1.0487 5.0028 1.683 8.0134 1.8232v13.6792c-1.1379.2598-2.1468.859-2.9166 1.6846l-10.3609-5.9814ZM36.8044 79.25c-1.7499 0-3.1732-1.4233-3.1732-3.1732 0-1.7467 1.4233-3.1684 3.1732-3.1684 1.7467 0 3.17 1.4217 3.17 3.1684 0 1.7484-1.4217 3.1732-3.17 3.1732Zm14.5509-13.0481-10.3625 5.9814c-.7682-.8256-1.7755-1.4248-2.9118-1.6846V56.8195c3.0106-.1402 5.8172-.7761 8.0118-1.8232 2.5117-1.2001 4.0066-2.8449 4.2903-4.6825l11.3284 6.5424c-.1641.5323-.2534 1.0965-.2534 1.6814s.0893 1.1491.2534 1.6814l-10.3562 5.9829Zm15.8276-4.4943c-1.7468 0-3.17-1.4217-3.17-3.1684 0-1.7468 1.4216-3.1684 3.17-3.1684 1.7483 0 3.1699 1.4216 3.1699 3.1684 0 1.7467-1.4232 3.1684-3.1699 3.1684Z" fill="#1652EE"/>
</svg>