<svg xmlns="http://www.w3.org/2000/svg" width="80" height="80" fill="none">
  <path d="M78.4488 8.1251c.3382 0 .6625-.13433.9016-.37344.2391-.23911.3734-.56341.3734-.90156v-5.1c0-.33815-.1343-.66245-.3734-.901564-.2391-.239108-.5634-.373438-.9016-.373438H1.94883c-.33815 0-.66245.13433-.90156.373438-.239112.239114-.373442.563414-.373442.901564v5.1c0 .33815.13433.66245.373442.90156.23911.23911.56341.37344.90156.37344h1.275v30.6h-1.275c-.33815 0-.66245.1343-.90156.3734-.239112.2391-.373442.5634-.373442.9016v7.65c0 .3382.13433.6625.373442.9016.23911.2391.56341.3734.90156.3734H78.4488c.3382 0 .6625-.1343.9016-.3734.2391-.2391.3734-.5634.3734-.9016v-7.65c0-.3382-.1343-.6625-.3734-.9016-.2391-.2391-.5634-.3734-.9016-.3734h-1.275v-30.6h1.275Zm-75.22497-5.1H77.1738v2.55H3.22383v-2.55Zm47.17497 35.7v-6.375c0-.3382-.1343-.6625-.3734-.9016-.2391-.2391-.5634-.3734-.9016-.3734h-17.85c-.3381 0-.6624.1343-.9015.3734-.2391.2391-.3735.5634-.3735.9016v6.375h-16.575V13.7529l1.9125-1.9125 2.2861 2.2861 1.8029-1.8028-2.2861-2.2861 1.9125-1.9125H61.346l1.9125 1.9125-2.2861 2.2861 1.8029 1.8028 2.286-2.2861 1.9125 1.9125v24.9722h-16.575Zm-2.55 0h-15.3v-5.1h15.3v5.1Zm-34.425-28.5779V8.1251h2.0222l-2.0222 2.0221Zm-2.55 8.925-4.57212-4.5721 4.57212-4.57215v9.14425Zm-5.09997-1.4943 4.57217 4.5722-4.57217 4.5722v-9.1444Zm5.09997 7.65v9.1444l-4.57212-4.5722 4.57212-4.5722Zm56.1-15.0807-2.0221-2.0221h2.0221v2.0221Zm2.55 15.0807 4.5722 4.5722-4.5722 4.5722v-9.1444Zm5.1 1.4944-4.5721-4.5722 4.5721-4.5722v9.1444Zm-5.1-7.6501V9.92795l4.5722 4.57215-4.5722 4.5721ZM9.07098 8.1251l-3.29715 3.2971V8.1251h3.29715ZM5.77383 32.8779l5.09997 5.1v.7472H5.77383v-5.8472ZM77.1738 46.3751H3.22383v-5.1H77.1738v5.1Zm-7.65-7.65v-.7472l5.1-5.1v5.8472h-5.1Zm5.1-27.3029-3.2971-3.2971h3.2971v3.2971Z" fill="#1652EE"/>
  <path d="m50.6263 30.3775 10.2051-15.3 2.1216 1.4153-10.2051 15.3-2.1216-1.4153Zm-3.482-10.5787 11.475-7.6538 1.4152 2.1216-11.475 7.6538-1.4152-2.1216Zm-29.6795-3.3252 2.1229-1.4152 10.2051 15.3-2.1216 1.4152-10.2064-15.3Zm2.9083-2.1828 1.4153-2.1216 11.475 7.6539-1.4153 2.1216-11.475-7.6539ZM40.1984 25.975c1.4084 0 2.55-1.1417 2.55-2.55 0-1.4083-1.1416-2.55-2.55-2.55-1.4083 0-2.55 1.1417-2.55 2.55 0 1.4083 1.1417 2.55 2.55 2.55Z" fill="#1652EE"/>
  <path d="M42.1109 27.2502h-3.825l-3.4425-4.59-2.04 1.53 3.825 5.1c.2397.3213.6184.51 1.02.51h5.1c.198 0 .3932-.0461.5702-.1346.1771-.0886.3311-.2171.4498-.3754l3.825-5.1-2.04-1.53-3.4425 4.59ZM5.77344 64.2252c0 2.1088 1.71615 3.825 3.825 3.825 2.10886 0 3.82496-1.7162 3.82496-3.825 0-2.1089-1.7161-3.825-3.82496-3.825-2.10885 0-3.825 1.7161-3.825 3.825Zm5.09996 0c-.0146.3282-.1554.6382-.3929.8653-.2375.2271-.55345.3539-.88206.3539-.32862 0-.64457-.1268-.88207-.3539-.2375-.2271-.37825-.5371-.39293-.8653.01468-.3283.15543-.6383.39293-.8654.2375-.2271.55345-.3539.88207-.3539.32861 0 .64456.1268.88206.3539.2375.2271.3783.5371.3929.8654Z" fill="#1652EE"/>
  <path d="m16.2524 63.4283-4.7162 5.8968H7.66022l-4.7175-5.8968L.951172 65.022l4.822048 6.0257v7.2024c0 .3382.13433.6625.37344.9016.23911.2391.56341.3734.90156.3734h5.09998c.3382 0 .6625-.1343.9016-.3734.2391-.2391.3734-.5634.3734-.9016v-7.2024l4.8208-6.0257-1.9916-1.5937ZM8.32322 76.9751v-5.1h2.54998v5.1H8.32322Zm20.39998-8.925c2.1089 0 3.825-1.7161 3.825-3.825 0-2.1088-1.7161-3.825-3.825-3.825-2.1088 0-3.825 1.7162-3.825 3.825 0 2.1089 1.7162 3.825 3.825 3.825Zm0-5.1c.2526-.0002.4995.0745.7096.2146.21.1401.3738.3395.4706.5727.0967.2333.1221.49.0729.7377-.0492.2477-.1708.4752-.3493.6538-.1786.1786-.4061.3001-.6538.3493-.2477.0492-.5044.0239-.7377-.0729-.2333-.0968-.4326-.2605-.5727-.4706-.1402-.2101-.2148-.457-.2146-.7096 0-.7038.5725-1.275 1.275-1.275Z" fill="#1652EE"/>
  <path d="m35.3774 63.4283-4.7162 5.8968h-3.876l-4.7175-5.8968-1.9915 1.5937 4.822 6.0257v7.2024c0 .3382.1344.6625.3735.9016.2391.2391.5634.3734.9015.3734h5.1c.3382 0 .6625-.1343.9016-.3734.2391-.2391.3734-.5634.3734-.9016v-7.2024l4.8208-6.0257-1.9916-1.5937Zm-7.9292 13.5468v-5.1h2.55v5.1h-2.55Zm20.4-12.75c0 2.1089 1.7162 3.825 3.825 3.825 2.1089 0 3.825-1.7161 3.825-3.825 0-2.1088-1.7161-3.825-3.825-3.825-2.1088 0-3.825 1.7162-3.825 3.825Zm5.1 0c-.0147.3283-.1554.6383-.3929.8654-.2375.2271-.5535.3539-.8821.3539s-.6445-.1268-.882-.3539c-.2375-.2271-.3783-.5371-.393-.8654.0147-.3282.1555-.6382.393-.8653.2375-.2271.5534-.3539.882-.3539s.6446.1268.8821.3539c.2375.2271.3782.5371.3929.8653Z" fill="#1652EE"/>
  <path d="m58.3286 63.4283-4.7162 5.8968h-3.876l-4.7175-5.8968-1.9916 1.5937 4.8221 6.0257v7.2024c0 .3382.1343.6625.3734.9016.2391.2391.5634.3734.9016.3734h5.1c.3381 0 .6624-.1343.9016-.3734.2391-.2391.3734-.5634.3734-.9016v-7.2024l4.8208-6.0257-1.9916-1.5937Zm-7.9292 13.5468v-5.1h2.55v5.1h-2.55Zm20.4-8.925c2.1088 0 3.825-1.7161 3.825-3.825 0-2.1088-1.7162-3.825-3.825-3.825-2.1089 0-3.825 1.7162-3.825 3.825 0 2.1089 1.7161 3.825 3.825 3.825Zm0-5.1c.2525-.0002.4995.0745.7095.2146.2101.1401.3739.3395.4707.5727.0967.2333.1221.49.0729.7377-.0492.2477-.1708.4752-.3494.6538-.1785.1786-.4061.3001-.6537.3493-.2477.0492-.5045.0239-.7377-.0729-.2333-.0968-.4326-.2605-.5727-.4706-.1402-.2101-.2149-.457-.2146-.7096 0-.7038.5725-1.275 1.275-1.275Z" fill="#1652EE"/>
  <path d="m77.4527 63.4282-4.7163 5.8969h-3.876l-4.7175-5.8969-1.9915 1.5938 4.822 6.0256v7.2025c0 .3382.1344.6625.3735.9016.2391.2391.5634.3734.9015.3734h5.1c.3382 0 .6625-.1343.9016-.3734.2391-.2391.3734-.5634.3734-.9016v-7.2025l4.8208-6.0256-1.9915-1.5938Zm-7.9293 13.5469v-5.1h2.55v5.1h-2.55Zm-5.1-21.675c0-2.1089-1.7161-3.825-3.825-3.825-2.1088 0-3.825 1.7161-3.825 3.825 0 2.1088 1.7162 3.825 3.825 3.825 2.1089 0 3.825-1.7162 3.825-3.825Zm-5.1 0c-.0002-.2525.0745-.4995.2146-.7095.1401-.2101.3395-.3739.5727-.4707.2333-.0967.49-.1221.7377-.0729.2477.0492.4752.1708.6538.3494.1785.1785.3001.4061.3493.6537.0492.2477.0239.5045-.0729.7377-.0968.2333-.2605.4326-.4706.5727-.2101.1402-.457.2149-.7096.2146-.7025 0-1.275-.5712-1.275-1.275Z" fill="#1652EE"/>
  <path d="m51.9523 56.097 5.1 6.375c.1195.1492.271.2697.4434.3525.1724.0827.3611.1257.5523.1256h5.1c.1913.0001.38-.0429.5524-.1256.1724-.0828.3239-.2033.4434-.3525l5.1-6.375-1.9915-1.5938-4.7163 5.8969H58.66l-4.7175-5.8969-1.9902 1.5938Zm-7.9293-.7969c0-2.1089-1.7161-3.825-3.825-3.825-2.1088 0-3.825 1.7161-3.825 3.825 0 2.1088 1.7162 3.825 3.825 3.825 2.1089 0 3.825-1.7162 3.825-3.825Zm-5.1 0c-.0002-.2525.0745-.4995.2146-.7095.1401-.2101.3395-.3739.5727-.4707.2333-.0967.49-.1221.7377-.0729.2477.0492.4752.1708.6538.3494.1786.1785.3001.4061.3493.6537.0492.2477.0239.5045-.0729.7377-.0968.2333-.2605.4326-.4706.5727-.2101.1402-.457.2149-.7096.2146-.7025 0-1.275-.5712-1.275-1.275Z" fill="#1652EE"/>
  <path d="m48.8454 56.097-1.9916-1.5938-4.7162 5.8969h-3.876l-4.7175-5.8969-1.9915 1.5938 5.1 6.375c.2435.3021.6094.4781.997.4781h5.1c.1912.0001.38-.0429.5524-.1256.1723-.0828.3239-.2033.4434-.3525l5.1-6.375Zm-25.2208-.7969c0-2.1089-1.7161-3.825-3.825-3.825-2.1088 0-3.825 1.7161-3.825 3.825 0 2.1088 1.7162 3.825 3.825 3.825 2.1089 0 3.825-1.7162 3.825-3.825Zm-5.1 0c-.0002-.2525.0744-.4995.2146-.7095.1401-.2101.3394-.3739.5727-.4707.2332-.0967.49-.1221.7377-.0729.2477.0492.4752.1708.6537.3494.1786.1785.3002.4061.3494.6537.0492.2477.0238.5045-.0729.7377-.0968.2333-.2606.4326-.4707.5727-.21.1402-.457.2149-.7095.2146-.7025 0-1.275-.5712-1.275-1.275Z" fill="#1652EE"/>
  <path d="m11.1523 56.0969 5.1 6.375c.1196.1493.2711.2698.4435.3525.1723.0828.3611.1257.5523.1256h5.1c.1912.0001.38-.0428.5524-.1256.1723-.0827.3239-.2032.4434-.3525l5.1-6.375-1.9916-1.5937L21.7361 60.4h-3.876l-4.7175-5.8968-1.9903 1.5937Z" fill="#1652EE"/>
</svg>