<svg xmlns="http://www.w3.org/2000/svg" width="80" height="76" fill="none"><path d="M69.244 5.516c-6.427-2.958-14.774 1.388-18.606 9.687-2.17 4.7-2.527 9.8-.98 13.993 1.108 3 3.074 5.221 5.689 6.424 1.35.618 2.818.935 4.303.928 5.474 0 11.287-4.083 14.303-10.615 2.17-4.7 2.527-9.8.98-13.993-1.107-3-3.074-5.221-5.689-6.424Zm.043 2.17a8.891 8.891 0 0 1 3.156 3.36l-.294.638-3.883-1.786 1.02-2.212ZM55.872 22.012l1.466-3.175 3.883 1.787-1.466 3.175-3.883-1.787Zm3.088 3.51-1.466 3.175-3.884-1.787 1.466-3.174 3.884 1.787Zm-.826-8.408 1.466-3.175 3.883 1.787-1.466 3.175-3.883-1.787Zm4.812 4.303 3.884 1.787-1.466 3.175-3.884-1.787 1.466-3.175Zm.796-1.724 1.466-3.175 3.883 1.787-1.466 3.175-3.883-1.787Zm2.262-4.897 1.465-3.174 3.884 1.787-1.466 3.175-3.883-1.788ZM62.95 6.682a9.774 9.774 0 0 1 1.955-.204 8.534 8.534 0 0 1 2.656.415l-1.02 2.212-3.884-1.787.293-.636Zm-1.089 2.36 3.884 1.786-1.466 3.175-3.884-1.787 1.466-3.175ZM59.533 7.97l.604.278-1.466 3.175-2.33-1.072a15.397 15.397 0 0 1 3.192-2.38Zm-4.549 3.846 2.891 1.33-1.466 3.175-3.414-1.571a18.933 18.933 0 0 1 1.99-2.934Zm-2.825 4.64 3.454 1.59-1.466 3.174-3.09-1.422a19.423 19.423 0 0 1 1.102-3.343Zm-1.434 9.128a15.905 15.905 0 0 1-.005-3.852l2.632 1.21-1.466 3.175-1.16-.534Zm4.575 7.864a8.896 8.896 0 0 1-3.155-3.364l.67-1.45 3.883 1.788-1.398 3.026Zm6.334 1.01a8.978 8.978 0 0 1-4.61-.217l1.398-3.026L62.306 33l-.672 1.456Zm1.468-3.18-3.884-1.787 1.466-3.174 3.884 1.786-1.466 3.174Zm2.884 1.326-1.16-.533 1.466-3.175 2.628 1.21a16.203 16.203 0 0 1-2.934 2.499Zm4.192-4.01-3.09-1.42 1.466-3.175 3.459 1.59a19.293 19.293 0 0 1-1.834 3.006h-.001Zm2.592-4.746-3.42-1.573 1.465-3.175 2.902 1.335a18.976 18.976 0 0 1-.947 3.414Zm1.184-5.394-2.343-1.078 1.466-3.175.61.28c.263 1.307.353 2.643.267 3.973Z" fill="#1652EE"/><path d="M71.049 1.61c-8.232-3.788-18.855 1.635-23.681 12.089-2.704 5.856-3.137 12.246-1.187 17.53 1.003 2.718 2.559 4.939 4.568 6.562l-3.771 8.168-.41-.087a8.444 8.444 0 0 0-1.352-.177l-.692-1.003c-.56-.81-.801-1.8-.675-2.778a5.884 5.884 0 0 0-.994-4.1l-20.87-30.24a6.086 6.086 0 0 0-8.446-1.552 6.058 6.058 0 0 0-1.557 8.435l12.205 17.684a20.252 20.252 0 1 0 11.08 33.806 7.108 7.108 0 1 0 10.193-3.84l1.534.316 1.71.926 4.259 6.172-.125.085a2.171 2.171 0 0 0-.557 3.022 4.439 4.439 0 0 0 6.16 1.133l2.497-1.716c.523-.36.962-.828 1.288-1.372l1.06.574a4.775 4.775 0 0 0 3.526.413l4.125-1.11a1.592 1.592 0 0 0 .889-2.456l-3.132-4.44 5.859-2.476.02-.008a1.59 1.59 0 0 0 .43-2.62l-4.18-4.084 4.588-2.924a1.592 1.592 0 0 0 .092-2.623l-3.382-2.504a4.78 4.78 0 0 0-3.2-.928l-14.98.968 2.741-5.94c.81.147 1.631.22 2.454.22 6.962 0 14.307-5.104 18.09-13.296 2.705-5.857 3.137-12.247 1.187-17.532-1.43-3.87-3.975-6.738-7.364-8.298Zm-25.75 45.993-2.585 12.05c-.866-.094-2.108-.331-2.908-1.34.653-2.021.984-4.132.982-6.256 0-.735-.04-1.47-.12-2.202.494-1.488 2.471-2.415 4.63-2.252Zm-4.277 13.652a7.062 7.062 0 0 0-3.112 1.216c.43-.714.817-1.454 1.155-2.216.58.46 1.245.8 1.957 1ZM23.519 33.95c1.166.193 2.311.497 3.42.908a.95.95 0 0 0 1.13-.373v-.001a.95.95 0 0 0-.462-1.402 20.112 20.112 0 0 0-.614-.216L13.545 13.378a4.16 4.16 0 0 1 1.07-5.793 4.186 4.186 0 0 1 5.807 1.068l20.869 30.24c.56.81.8 1.8.674 2.779a5.883 5.883 0 0 0 .995 4.099l.077.11a6.46 6.46 0 0 0-2.817 1.388 20.124 20.124 0 0 0-5.378-9.541 19.945 19.945 0 0 0-1.216-1.12.95.95 0 1 0-1.224 1.451c.137.117.272.238.407.36l-6.327 6.315a12.858 12.858 0 0 1-2.963-10.783ZM38.64 49.03a12.916 12.916 0 0 1-10.815-2.955l6.328-6.318a18.185 18.185 0 0 1 4.487 9.272ZM20.49 33.7c.38 0 .76.012 1.14.036a14.736 14.736 0 0 0 3.506 12.342l-4.646 4.637L8.17 38.417a18.365 18.365 0 0 1 12.32-4.716ZM2.09 52.057a18.212 18.212 0 0 1 4.735-12.299l12.321 12.3-4.62 4.61a15.039 15.039 0 0 0-12.401-3.492 18.631 18.631 0 0 1-.035-1.119Zm.245 3.006a12.912 12.912 0 0 1 10.845 2.95l-6.355 6.343a18.185 18.185 0 0 1-4.49-9.292Zm15.147 15.105a18.308 18.308 0 0 1-9.313-4.471l6.355-6.344a12.852 12.852 0 0 1 2.958 10.815Zm1.887.21a14.977 14.977 0 0 0-3.5-12.368l4.62-4.611L32.81 65.697a18.385 18.385 0 0 1-13.44 4.682Zm14.785-6.022-12.32-12.299 4.647-4.639a14.777 14.777 0 0 0 12.372 3.5c.023.378.036.758.036 1.14a18.212 18.212 0 0 1-4.735 12.298Zm13.03 3.94a5.21 5.21 0 1 1-5.21-5.209 5.215 5.215 0 0 1 5.21 5.21Zm-.588-7.9-2.008-.429 2.579-12.025 2.008.43-2.579 12.024Zm5.791 4.948 3.72 2.015-1.58 1.086-2.14-3.101Zm7.476 5.137-2.497 1.716a2.539 2.539 0 0 1-3.522-.647.273.273 0 0 1 .07-.38l4.067-2.796 2.572 1.392c-.18.281-.415.524-.69.714Zm10.158-1.65-3.703.996a2.88 2.88 0 0 1-2.128-.249l-15.787-8.551.712-3.322 16.93 6.138c.4.144.746.409.991.757l2.985 4.23Zm3.354-9.216-6.241 2.637-17.617-6.421.407-1.899 18.457 1.345c.173 0 .347-.012.519-.035l4.475 4.373Zm-4.322-12.233a2.885 2.885 0 0 1 1.938.56l3.024 2.238-4.508 2.873c-.38.241-.826.354-1.275.322l-17.906-1.316.755-3.518 17.972-1.159Zm-17.27-.788-1.41.091-1.493-.319 3.45-7.474a13.093 13.093 0 0 0 2.482 1.14l-3.029 6.562Zm23.718-19.951c-4.388 9.504-13.882 14.51-21.164 11.16-2.922-1.345-5.126-3.844-6.376-7.23-1.777-4.815-1.365-10.675 1.13-16.078C52.553 6.993 59.198 2.294 65.425 2.294a11.479 11.479 0 0 1 4.83 1.04c2.92 1.345 5.125 3.845 6.375 7.23 1.776 4.816 1.365 10.676-1.13 16.079Z" fill="#1652EE"/><path d="m16.521 10.893-.18-.271a.95.95 0 1 0-1.58 1.052l.18.271a.95.95 0 1 0 1.58-1.052Zm1.604 2.41a.95.95 0 0 0-1.58 1.051l6.766 10.164a.95.95 0 1 0 1.58-1.052l-6.766-10.164Z" fill="#1652EE"/></svg>