<svg xmlns="http://www.w3.org/2000/svg" width="82" height="81" fill="none"><path d="M78.87 73.039V61.182a3.788 3.788 0 0 0-1.266-7.36h-6.561c.15-.406.229-.834.233-1.266a3.79 3.79 0 0 0-2.531-3.564v-2.764h4.024l-2.212-13.28a4.403 4.403 0 0 0-1.813-7.397v-5.508l-3.295-1.255 10.5-4.2L40.9.567 5.853 14.588l14.798 5.918v15.597h-5.063A10.114 10.114 0 0 0 9.69 54.439a13.289 13.289 0 0 0 4 25.96h63.915a3.788 3.788 0 0 0 1.266-7.36Zm-2.532-9.092H53.557v2.53h22.781v6.329H13.466a5.695 5.695 0 1 1 0-11.39h62.872v2.53ZM66.213 48.759H15.588a2.531 2.531 0 0 1 0-5.062h15.157a38.112 38.112 0 0 0 10.156 1.265c3.426.037 6.842-.389 10.155-1.265H62.61l-.423 2.53h4.026v2.532Zm-5.76-10.125h3.001l-.421 2.531h-5.856a15.382 15.382 0 0 0 3.276-2.53Zm9.328 5.063h-4.604l1.593-9.565c.468.096.95.096 1.418 0l1.593 9.565Zm-.404-13.922a1.898 1.898 0 1 1-3.796 0 1.898 1.898 0 0 1 3.796 0Zm-3.164-7.986v3.764a4.4 4.4 0 0 0-1.812 7.397l-.525 3.153H61.15V20.506l.829-.331 4.233 1.614ZM40.901 3.294l28.233 11.293-7.176 2.87-20.607-7.85-.9 2.367 18.038 6.872-17.588 7.034-28.234-11.293L40.901 3.294Zm0 25.313 17.718-7.088v15.37c-1.133 1.175-6.132 5.542-17.718 5.542-11.6 0-16.595-4.377-17.719-5.541V21.519l17.719 7.088ZM7.994 46.227a7.603 7.603 0 0 1 7.594-7.593h5.76a15.375 15.375 0 0 0 3.276 2.531h-9.036a5.063 5.063 0 0 0 0 10.125h51.89a1.266 1.266 0 0 1 0 2.532h-51.89a7.603 7.603 0 0 1-7.594-7.594Zm69.61 31.641H13.69a10.758 10.758 0 0 1 0-21.515h63.914a1.266 1.266 0 0 1 0 2.531H13.466a8.227 8.227 0 1 0 0 16.453h64.138a1.266 1.266 0 0 1 0 2.531Z" fill="#1652EE"/><path d="M13.057 67.744h35.437v2.53H13.057v-2.53Z" fill="#1652EE"/></svg>