<svg xmlns="http://www.w3.org/2000/svg" width="82" height="82" fill="none">
  <path fill-rule="evenodd" clip-rule="evenodd" d="M36.0555 64.8369V54.8284c0-.7103-.578-1.2884-1.2884-1.2884-.7112 0-1.2884.5781-1.2884 1.2884v10.0085c0 .7113.5772 1.2884 1.2884 1.2884.7102.0001 1.2884-.5771 1.2884-1.2884Zm-9.4227-10.0084V64.837c0 .7113.5772 1.2884 1.2884 1.2884.7111 0 1.2883-.5772 1.2883-1.2884V54.8285c0-.7103-.5772-1.2883-1.2883-1.2883-.7112-.0002-1.2884.5779-1.2884 1.2883Z" fill="#1652EE"/>
  <path fill-rule="evenodd" clip-rule="evenodd" d="M22.9179 66.1254h16.8534c.7113 0 1.2884-.5772 1.2884-1.2884 0-.7112-.5772-1.2883-1.2884-1.2883H22.9179c-.7111 0-1.2884.5772-1.2884 1.2883-.0001.7112.5771 1.2884 1.2884 1.2884ZM53.286 53.54H4.22465c-.72758 0-1.31759-.5892-1.31759-1.3168V12.7709c0-.7275.59014-1.3168 1.31759-1.3168H16.9053c.7111 0 1.2883-.5772 1.2883-1.2883 0-.71115-.5772-1.28836-1.2883-1.28836H4.22465C2.07384 8.87731.330078 10.6201.330078 12.7709v39.4523c0 2.1508 1.743632 3.8937 3.894432 3.8937H53.2858c.7113 0 1.2884-.5773 1.2884-1.2884.0001-.7105-.5771-1.2885-1.2882-1.2885Zm6.4962-25.332v11.8114c0 .7104.5772 1.2884 1.2883 1.2884.7113 0 1.2884-.578 1.2884-1.2884V28.208c0-.7113-.5772-1.2883-1.2884-1.2883-.7111-.0002-1.2883.577-1.2883 1.2883Z" fill="#1652EE"/>
  <path fill-rule="evenodd" clip-rule="evenodd" d="M53.0471 43.187H1.61843c-.711274 0-1.288352.5764-1.288352 1.2884v7.7477c.000296 1.0328.410569 2.0233 1.140682 2.7538.36166.3615.79099.6483 1.26349.8439.47249.1955.97889.2961 1.49026.296H53.2858c.7113 0 1.2884-.5772 1.2884-1.2884 0-.7103-.5772-1.2883-1.2884-1.2883H4.22451c-.17297 0-.34427-.0339-.5041-.1001-.15984-.0661-.30508-.1631-.42744-.2853-.12235-.1223-.21942-.2675-.28566-.4273-.06624-.1597-.10035-.331-.10039-.504v-6.4593H53.0471c.7113 0 1.2883-.5772 1.2883-1.2883 0-.7112-.5772-1.2888-1.2883-1.2888Z" fill="#1652EE"/>
  <path fill-rule="evenodd" clip-rule="evenodd" d="M61.0706 38.7309c-5.9276 0-10.7395 4.8119-10.7395 10.7395s4.8119 10.7394 10.7395 10.7394 10.7403-4.8118 10.7403-10.7394-4.8128-10.7395-10.7403-10.7395Zm0 2.5768c4.5052 0 8.1634 3.6575 8.1634 8.1627 0 4.5052-3.6582 8.1626-8.1634 8.1626-4.5052 0-8.1626-3.6574-8.1626-8.1626 0-4.5052 3.6574-8.1627 8.1626-8.1627Zm-16.735 40.4925c7.7769 0 25.6972 0 33.4749-.0257 1.3254 0 2.5613-.6838 3.27-1.809.3482-.5539.5503-1.187.5872-1.8402.037-.6531-.0924-1.305-.3759-1.8946-.0008-.0017-.0008-.0025-.0018-.0043-3.6384-7.502-11.3295-12.6781-20.2195-12.6781-8.8885 0-16.5778 5.1743-20.2411 12.6626-.0018.0026-.0026.0051-.0044.0077-.2851.5937-.415 1.2501-.3776 1.9077.0374.6576.241 1.2949.5916 1.8525.3507.5575.837 1.0171 1.4136 1.3356.5765.3185 1.2244.4857 1.883.4858Zm0-2.5768h-.0008c-.2227-.0001-.4418-.0567-.6368-.1644-.195-.1077-.3595-.263-.4781-.4515-.1184-.1883-.1871-.4034-.1999-.6254-.0127-.2219.0309-.4435.1268-.6441C46.392 70.7087 53.2 66.1253 61.0705 66.1253c7.8697 0 14.6777 4.5826 17.8996 11.2231.0944.1968.1373.4143.1248.6321-.0125.2179-.08.4291-.1963.6138-.1162.1847-.2774.3369-.4684.4425-.191.1055-.4057.1609-.6239.161h-.0043c-7.7752.0256-25.6911.0256-33.4664.0256Zm-10.1905-64.58V4.09382c0-.72758.5901-1.31678 1.3176-1.31678h28.639c.3491.00042.6839.13906.9311.38561.1223.12228.2193.26745.2855.42722.0661.15977.1002.33102.1001.50395V20.8931c.0001.3492-.1387.6842-.3856.9311-.2471.2467-.582.3854-.9311.3857H45.1052c-.7103 0-1.2883.5772-1.2883 1.2883 0 .7112.578 1.2884 1.2883 1.2884h18.9965c1.0324 0 2.0228-.4106 2.7529-1.1407.7301-.7301 1.1407-1.7205 1.1407-2.753V4.09369c-.0002-1.0326-.4105-2.02285-1.1407-2.75295C66.1245.610596 65.1343.200336 64.1018.200195h-28.639c-2.1508 0-3.8944 1.743635-3.8944 3.893625V14.6434c0 .7112.578 1.2884 1.2883 1.2884.7112 0 1.2884-.5772 1.2884-1.2884Z" fill="#1652EE"/>
  <path fill-rule="evenodd" clip-rule="evenodd" d="M58.1018 6.19562H47.0291c-.7113 0-1.2884.57722-1.2884 1.28836s.5772 1.28835 1.2884 1.28835h11.0727c.7103 0 1.2883-.57721 1.2883-1.28835 0-.71114-.578-1.28836-1.2883-1.28836Zm0 5.00938h-8.9435c-.7112 0-1.2883.5772-1.2883 1.2884 0 .7111.5772 1.2883 1.2883 1.2883h8.9433c.7104 0 1.2884-.5772 1.2884-1.2883.0001-.7112-.5779-1.2884-1.2882-1.2884Zm0 5.0094h-6.468c-.7112 0-1.2883.5772-1.2883 1.2883 0 .7113.5772 1.2884 1.2883 1.2884h6.468c.7103 0 1.2883-.5772 1.2883-1.2884 0-.7111-.578-1.2883-1.2883-1.2883ZM22.366 4.25366c-3.7664 0-6.8242 3.05786-6.8242 6.82424 0 3.7665 3.0578 6.8253 6.8242 6.8253 3.7674 0 6.8253-3.0587 6.8253-6.8253 0-3.76652-3.0579-6.82424-6.8253-6.82424Zm0 2.57684c2.345 0 4.2484 1.90343 4.2484 4.2474 0 2.345-1.9034 4.2484-4.2484 4.2484-2.344 0-4.2474-1.9034-4.2474-4.2484 0-2.34397 1.9034-4.2474 4.2474-4.2474Zm9.7139 13.3119H18.4304c-3.7072 0-6.8724 2.6748-7.4909 6.3304-.4918 2.912-.98424 5.8238-1.47734 8.7356-.07326.4338-.05102.8783.06515 1.3027.11617.4243.32348.8182.60749 1.1542.284.336.6379.606 1.0369.7913.3991.1852.8337.2812 1.2737.2812h14.1305c1.6706 0 3.0252-1.3545 3.0252-3.0252V28.719h3.2339c1.7285-.0001 3.39-.6682 4.6375-1.8647 1.0368-.9956 2.4111-2.3132 3.5518-3.4075.8202-.7876 1.2945-1.8685 1.3185-3.0054.0117-.569-.0899-1.1346-.299-1.6639-.2091-.5292-.5215-1.0116-.9189-1.4189-.7851-.8059-1.8557-1.2705-2.9805-1.2936-1.137-.0237-2.237.4051-3.0579 1.1923l-3.0066 2.8851Zm.5179 2.5768c.3324 0 .6519-.1287.8916-.3591 0 0 1.8253-1.7505 3.3808-3.2433.3277-.3141.7667-.4853 1.2206-.4759.4486.0094.8756.1948 1.1888.5161l.0206.0207c.3094.3285.4767.7658.4654 1.217-.0113.4512-.2001.8796-.5255 1.1923l-3.5518 3.4075c-.7676.7362-1.7899 1.1473-2.8535 1.1476h-4.5223c-.7111 0-1.2883.5764-1.2883 1.2883v8.282c-.0001.1189-.0474.2329-.1315.317-.084.0841-.198.1314-.3169.1314H12.4452c-.0652-.0002-.1296-.0145-.1887-.0419-.0592-.0274-.1117-.0673-.154-.1169-.042-.0499-.0726-.1083-.0898-.1712-.0172-.0629-.0206-.1287-.0099-.193.3702-2.1852.9732-5.7507 1.4773-8.7355.409-2.4153 2.5005-4.1831 4.9501-4.1831h14.1676Z" fill="#1652EE"/>
  <path fill-rule="evenodd" clip-rule="evenodd" d="m17.4164 37.6641 1.3674-8.0853c.1186-.7017-.3548-1.3667-1.0557-1.4851-.7009-.1194-1.3666.3538-1.485 1.0548l-1.3675 8.0861c-.1185.7009.3548 1.3667 1.0557 1.4851.7009.1186 1.3666-.3539 1.4851-1.0556Zm24.1553-18.7852 2.698-7.3569c.2448-.6683-.0988-1.4087-.7661-1.65349-.6683-.24481-1.4087.09877-1.6535.76629l-2.698 7.3569c-.2448.6683.0988 1.4086.7661 1.6535.6683.2446 1.4087-.0989 1.6535-.7663ZM29.5584 50.9408h3.5707c.7111 0 1.2883-.5773 1.2883-1.2884 0-.7113-.5772-1.2884-1.2883-1.2884h-3.5707c-.7111 0-1.2883.5773-1.2883 1.2884s.5772 1.2884 1.2883 1.2884Z" fill="#1652EE"/>
</svg>