<svg xmlns="http://www.w3.org/2000/svg" width="80" height="80" fill="none">
  <path d="M18.3246 25.7752h43.35c.3382 0 .6625-.1344.9016-.3735.2391-.2391.3734-.5634.3734-.9015V1.55015c0-.33815-.1343-.662456-.3734-.901565-.2391-.239109-.5634-.373439-.9016-.373439h-43.35c-.3381 0-.6624.13433-.9015.373439-.2392.239109-.3735.563415-.3735.901565V24.5002c0 .3381.1343.6624.3735.9015.2391.2391.5634.3735.9015.3735Zm28.05-2.55h-1.275v-2.5501h-2.55v2.5501h-5.1v-2.5501h-2.55v2.5501h-1.275v-3.8251c0-.7025.5712-1.275 1.275-1.275h10.2c.7038 0 1.275.5725 1.275 1.275v3.8251ZM19.5996 2.82515h40.8V23.2252h-11.475v-3.8251c0-2.1088-1.7161-3.825-3.825-3.825h-10.2c-2.1088 0-3.825 1.7162-3.825 3.825v3.8251h-11.475V2.82515ZM1.03433 30.6559c.17243.117.37093.1899.57811.2124.20718.0224.4167-.0063.61019-.0837l12.74997-5.1c.4845-.195.802-.663.802-1.1844V1.55015c-.0002-.20825-.0514-.41327-.1491-.597191-.0976-.183919-.2388-.341144-.4112-.45796-.1724-.116815-.3708-.189672-.5778-.212215-.207-.022543-.4164.005914-.6099.082887L1.27658 5.46567c-.484496.19508-.801971.663-.801971 1.18448V29.6002c0 .4233.210375.8185.559721 1.0557ZM3.02461 7.51332l10.19999-4.08V23.637l-10.19999 4.08V7.51332ZM78.7226 5.46567 65.9726.365671c-.1935-.076649-.4028-.104859-.6097-.082176-.2069.022682-.4051.095571-.5774.212325-.1723.116755-.3135.273839-.4112.45759-.0978.18375-.1491.3886-.1497.59674V24.5002c0 .5214.3175.9894.802 1.1844l12.75 5.1c.1935.0777.403.1066.6103.0843.2073-.0222.4059-.095.5785-.2119.1726-.117.3138-.2745.4113-.4588.0975-.1842.1483-.3896.1479-.598V6.65015c0-.52148-.3175-.9894-.802-1.18448ZM76.9746 27.717l-10.2-4.08V3.43332l10.2 4.08V27.717Z" fill="#1652EE"/>
  <path d="M34.8996 7.9252v2.55c0 2.8126 2.2874 5.1 5.1 5.1 2.8127 0 5.1-2.2874 5.1-5.1v-2.55c0-2.81265-2.2873-5.1-5.1-5.1-2.8126 0-5.1 2.28735-5.1 5.1Zm2.55 0c0-1.40633 1.1437-2.55 2.55-2.55 1.4063 0 2.55 1.14367 2.55 2.55v2.55c0 1.4063-1.1437 2.55-2.55 2.55-1.4063 0-2.55-1.1437-2.55-2.55v-2.55Zm8.0835 46.0683c1.3583-1.4176 2.1166-3.305 2.1165-5.2683v-2.55c0-4.219-3.431-7.65-7.65-7.65s-7.65 3.431-7.65 7.65v2.55c0 2.0425.8084 3.8951 2.1165 5.2683-4.1055.7994-7.2165 4.4204-7.2165 8.7567v5.1c0 .3382.1343.6625.3735.9016.2391.2391.5634.3734.9015.3734h22.95c.3382 0 .6625-.1343.9016-.3734.2391-.2391.3734-.5634.3734-.9016v-5.1c0-4.3363-3.111-7.9573-7.2165-8.7567Zm-10.6335-7.8183c0-2.8127 2.2874-5.1 5.1-5.1 2.8127 0 5.1 2.2873 5.1 5.1v2.55c0 2.8126-2.2873 5.1-5.1 5.1-2.8126 0-5.1-2.2874-5.1-5.1v-2.55Zm15.3 20.4h-2.55v-5.1h-2.55v5.1h-10.2v-5.1h-2.55v5.1h-2.55v-3.825c0-3.5152 2.8598-6.375 6.375-6.375h7.65c3.5152 0 6.375 2.8598 6.375 6.375v3.825Zm22.1085-2.3817c1.3583-1.4176 2.1166-3.305 2.1165-5.2683v-2.55c0-4.219-3.431-7.65-7.65-7.65s-7.65 3.431-7.65 7.65v2.55c0 2.0425.8084 3.8951 2.1165 5.2683-4.1055.7994-7.2165 4.4204-7.2165 8.7567v5.1c0 .3382.1343.6625.3735.9016.2391.2391.5634.3734.9015.3734h22.95c.3382 0 .6625-.1343.9016-.3734.2391-.2391.3734-.5634.3734-.9016v-5.1c0-4.3363-3.111-7.9573-7.2165-8.7567Zm-10.6335-7.8183c0-2.8127 2.2874-5.1 5.1-5.1 2.8127 0 5.1 2.2873 5.1 5.1v2.55c0 2.8126-2.2873 5.1-5.1 5.1-2.8126 0-5.1-2.2874-5.1-5.1v-2.55Zm15.3 20.4h-2.55v-5.1h-2.55v5.1h-10.2v-5.1h-2.55v5.1h-2.55v-3.825c0-3.5152 2.8598-6.375 6.375-6.375h7.65c3.5152 0 6.375 2.8598 6.375 6.375v3.825ZM18.7581 64.1935c1.3583-1.4176 2.1166-3.305 2.1165-5.2683v-2.55c0-4.219-3.431-7.65-7.65-7.65-4.21896 0-7.64999 3.431-7.64999 7.65v2.55c0 2.0425.80835 3.8951 2.1165 5.2683-4.1055.7994-7.216501 4.4204-7.216501 8.7567v5.1c0 .3382.13433.6625.373439.9016.239112.2391.563412.3734.901562.3734H24.6996c.3382 0 .6625-.1343.9016-.3734.2391-.2391.3734-.5634.3734-.9016v-5.1c0-4.3363-3.111-7.9573-7.2165-8.7567ZM8.12461 56.3752c0-2.8127 2.28739-5.1 5.09999-5.1 2.8127 0 5.1 2.2873 5.1 5.1v2.55c0 2.8126-2.2873 5.1-5.1 5.1-2.8126 0-5.09999-2.2874-5.09999-5.1v-2.55Zm15.29999 20.4h-2.55v-5.1h-2.55v5.1H8.12461v-5.1h-2.55v5.1h-2.55v-3.825c0-3.5152 2.85983-6.375 6.375-6.375h7.64999c3.5152 0 6.375 2.8598 6.375 6.375v3.825Zm-6.375-43.35h2.55v2.55h-2.55v-2.55Zm3.825 0h2.55v2.55h-2.55v-2.55Zm3.825 0h2.55v2.55h-2.55v-2.55Z" fill="#1652EE"/>
  <path d="M27.2492 41.0752h1.275c2.1089 0 3.825-1.7162 3.825-3.825v-5.1c0-2.1089-1.7161-3.825-3.825-3.825h-12.75c-2.1088 0-3.825 1.7161-3.825 3.825v5.1c0 2.1088 1.7162 3.825 3.825 3.825h4.6754l4.7596 3.57c.189.1428.4143.2298.6502.2513.2359.0214.4731-.0237.6847-.1302.4323-.2167.7051-.6579.7051-1.1411v-2.55Zm-1.275-2.55c-.3381 0-.6624.1343-.9015.3734-.2392.2391-.3735.5634-.3735.9016v1.275l-3.06-2.295c-.2205-.1658-.4891-.2553-.765-.255h-5.1c-.7038 0-1.275-.5725-1.275-1.275v-5.1c0-.7025.5712-1.275 1.275-1.275h12.75c.7038 0 1.275.5725 1.275 1.275v5.1c0 .7025-.5712 1.275-1.275 1.275h-2.55Zm34.425-1.275h2.55v2.55h-2.55v-2.55Zm-3.825 0h2.55v2.55h-2.55v-2.55Zm-3.825 0h2.55v2.55h-2.55v-2.55Z" fill="#1652EE"/>
  <path d="M54.7904 28.5801c-.1896-.1415-.4147-.2276-.6504-.2486-.2356-.0211-.4725.0239-.6841.1297-.2116.1058-.3897.2683-.5142.4694-.1246.2012-.1908.433-.1913.6695v2.55h-1.275c-2.1089 0-3.825 1.7162-3.825 3.825v5.1c0 2.1089 1.7161 3.825 3.825 3.825h12.75c2.1088 0 3.825-1.7161 3.825-3.825v-5.1c0-2.1088-1.7162-3.825-3.825-3.825H59.55l-4.7596-3.57Zm10.71 7.395v5.1c0 .3382-.1343.6625-.3734.9016-.2392.2391-.5635.3734-.9016.3734h-12.75c-.3382 0-.6625-.1343-.9016-.3734-.2391-.2391-.3734-.5634-.3734-.9016v-5.1c0-.7025.5712-1.275 1.275-1.275h2.55c.3381 0 .6624-.1343.9016-.3734.2391-.2391.3734-.5634.3734-.9016v-1.275l3.06 2.295c.2206.1658.4883.255.765.255h5.1c.7038 0 1.275.5725 1.275 1.275Z" fill="#1652EE"/>
</svg>