<svg xmlns="http://www.w3.org/2000/svg" width="80" height="80" viewBox="0 0 80 80" fill="none">
  <path d="M42.8334 40.4061C44.0874 39.7497 45.0851 38.6917 45.667 37.4015C46.2489 36.1112 46.3815 34.6631 46.0435 33.2886C45.7054 31.9141 44.9164 30.6926 43.8024 29.8194C42.6884 28.9462 41.3139 28.4717 39.8984 28.4717C38.483 28.4717 37.1084 28.9462 35.9945 29.8194C34.8805 30.6926 34.0914 31.9141 33.7534 33.2886C33.4154 34.6631 33.5479 36.1112 34.1299 37.4015C34.7118 38.6917 35.7095 39.7497 36.9635 40.4061C35.2334 41.015 33.7347 42.1452 32.6737 43.6411C31.6127 45.1371 31.0416 46.9252 31.0391 48.7593C31.0391 49.0949 31.1724 49.4169 31.4098 49.6542C31.6471 49.8916 31.969 50.0249 32.3047 50.0249H47.4922C47.8279 50.0249 48.1498 49.8916 48.3871 49.6542C48.6245 49.4169 48.7578 49.0949 48.7578 48.7593C48.7553 46.9252 48.1842 45.1371 47.1232 43.6411C46.0622 42.1452 44.5635 41.015 42.8334 40.4061ZM39.8984 31.0405C40.6494 31.0405 41.3835 31.2632 42.0079 31.6804C42.6323 32.0976 43.1189 32.6906 43.4063 33.3844C43.6937 34.0782 43.7689 34.8416 43.6224 35.5781C43.4759 36.3146 43.1142 36.9912 42.5832 37.5222C42.0522 38.0532 41.3757 38.4148 40.6392 38.5613C39.9026 38.7078 39.1392 38.6326 38.4454 38.3452C37.7516 38.0579 37.1587 37.5712 36.7415 36.9468C36.3242 36.3224 36.1016 35.5883 36.1016 34.8374C36.1016 33.8304 36.5016 32.8646 37.2136 32.1526C37.9257 31.4405 38.8914 31.0405 39.8984 31.0405ZM33.6969 47.4936C33.9874 46.0631 34.7635 44.777 35.8937 43.8532C37.0239 42.9294 38.4387 42.4248 39.8984 42.4248C41.3582 42.4248 42.773 42.9294 43.9032 43.8532C45.0334 44.777 45.8095 46.0631 46.1 47.4936H33.6969Z" fill="#1652EE"/>
  <path d="M66.4767 53.8218C63.5578 53.8196 60.7288 54.8311 58.4729 56.6834L52.3802 50.5907C54.788 47.787 56.1762 44.251 56.3188 40.5581L69.2434 40.0797C69.6038 41.248 70.3777 42.2449 71.4201 42.8839C72.4625 43.5228 73.7021 43.7599 74.9067 43.5508C76.1114 43.3417 77.1985 42.7008 77.9647 41.748C78.7309 40.7951 79.1235 39.5958 79.0692 38.3743C79.0148 37.1529 78.5172 35.9931 77.6694 35.1121C76.8216 34.2311 75.6818 33.6893 74.4634 33.588C73.2449 33.4868 72.0313 33.833 71.0498 34.562C70.0682 35.291 69.386 36.3527 69.1308 37.5484L56.2366 38.0256C55.9604 35.629 55.1606 33.3225 53.8938 31.2694C52.627 29.2163 50.9242 27.4669 48.9061 26.1452L51.3247 21.7484C53.1249 22.3767 55.0956 22.3058 56.846 21.5496C58.5964 20.7935 59.9988 19.4073 60.7753 17.6658C61.5518 15.9243 61.6457 13.9546 61.0383 12.1472C60.4309 10.3397 59.1667 8.82646 57.4961 7.90726C55.8255 6.98807 53.8706 6.73006 52.0187 7.18438C50.1669 7.63869 48.5533 8.77217 47.4979 10.3602C46.4424 11.9481 46.022 13.8747 46.3201 15.758C46.6182 17.6413 47.613 19.3439 49.1073 20.5283L46.6874 24.9276C43.8416 23.6245 40.6814 23.1662 37.5826 23.6073C34.4838 24.0484 31.577 25.3703 29.2079 27.4158L23.1152 21.3231C25.1739 18.8053 26.1861 15.5925 25.9424 12.3493C25.6987 9.10609 24.2178 6.08062 21.806 3.89867C19.3942 1.71672 16.236 0.54523 12.9847 0.626523C9.73332 0.707817 6.63762 2.03567 4.33786 4.33542C2.03811 6.63518 0.710258 9.73088 0.628965 12.9822C0.547671 16.2335 1.71916 19.3917 3.90111 21.8035C6.08306 24.2154 9.10853 25.6963 12.3517 25.9399C15.5949 26.1836 18.8077 25.1714 21.3256 23.1127L27.4183 29.2054C25.806 31.0668 24.6372 33.2698 23.9999 35.6485C23.3626 38.0271 23.2734 40.5194 23.7391 42.9375L12.6231 45.9294C11.9185 44.5621 10.7365 43.501 9.30135 42.9475C7.86621 42.394 6.27781 42.3865 4.83754 42.9266C3.39727 43.4666 2.20534 44.5165 1.48791 45.8772C0.77048 47.2378 0.577472 48.8144 0.945505 50.3079C1.31354 51.8014 2.21701 53.1079 3.48448 53.9794C4.75196 54.8509 6.29525 55.2268 7.82153 55.0358C9.34781 54.8448 10.7509 54.1002 11.7645 52.9432C12.7782 51.7863 13.3318 50.2975 13.3205 48.7593C13.3205 48.6328 13.2901 48.5062 13.2813 48.3797L24.4048 45.3852C25.6854 48.9806 28.1714 52.0216 31.4404 53.9914L28.7611 59.34C26.6326 58.6271 24.313 58.747 22.2692 59.6755C20.2255 60.604 18.6093 62.2722 17.7461 64.3444C16.8828 66.4165 16.8365 68.7387 17.6164 70.8436C18.3964 72.9485 19.9447 74.6798 21.9498 75.6891C23.9549 76.6984 26.2679 76.9107 28.4232 76.2832C30.5785 75.6558 32.4161 74.2353 33.5662 72.3075C34.7163 70.3797 35.0935 68.0879 34.6218 65.8932C34.1501 63.6986 32.8646 61.7641 31.0241 60.479L33.6971 55.1305C36.4921 56.2764 39.5499 56.626 42.5315 56.1406C45.5131 55.6552 48.3021 54.3536 50.5894 52.3803L56.6821 58.473C54.866 60.6981 53.8611 63.4749 53.8328 66.3469C53.8045 69.2189 54.7543 72.015 56.5261 74.2755C58.2979 76.536 60.7862 78.1262 63.5818 78.7847C66.3775 79.4432 69.3139 79.1308 71.9084 77.8987C74.5029 76.6667 76.6008 74.5885 77.8573 72.0058C79.1138 69.4231 79.454 66.4897 78.8219 63.688C78.1899 60.8862 76.6232 58.383 74.3795 56.5899C72.1359 54.7968 69.3489 53.8206 66.4767 53.8218ZM74.0705 36.1031C74.5711 36.1031 75.0605 36.2516 75.4768 36.5297C75.893 36.8078 76.2175 37.2032 76.4091 37.6657C76.6007 38.1282 76.6508 38.6372 76.5531 39.1282C76.4554 39.6192 76.2144 40.0702 75.8604 40.4242C75.5064 40.7782 75.0553 41.0193 74.5643 41.117C74.0733 41.2146 73.5644 41.1645 73.1018 40.9729C72.6393 40.7813 72.244 40.4569 71.9658 40.0406C71.6877 39.6244 71.5392 39.135 71.5392 38.6343C71.5392 37.963 71.8059 37.3192 72.2806 36.8445C72.7553 36.3698 73.3992 36.1031 74.0705 36.1031ZM53.8205 9.52497C54.8218 9.52497 55.8005 9.82189 56.6331 10.3782C57.4656 10.9344 58.1145 11.7251 58.4976 12.6501C58.8808 13.5752 58.9811 14.5931 58.7857 15.5751C58.5904 16.5571 58.1082 17.4592 57.4002 18.1672C56.6922 18.8752 55.7902 19.3574 54.8081 19.5527C53.8261 19.748 52.8082 19.6478 51.8832 19.2646C50.9581 18.8814 50.1675 18.2326 49.6112 17.4C49.0549 16.5675 48.758 15.5887 48.758 14.5875C48.758 13.2448 49.2914 11.9571 50.2408 11.0077C51.1902 10.0583 52.4778 9.52497 53.8205 9.52497ZM6.99237 52.5562C6.24142 52.5562 5.50733 52.3335 4.88294 51.9163C4.25855 51.4991 3.77189 50.9061 3.48451 50.2123C3.19714 49.5186 3.12195 48.7551 3.26845 48.0186C3.41495 47.2821 3.77657 46.6056 4.30757 46.0746C4.83858 45.5436 5.51511 45.1819 6.25164 45.0354C6.98816 44.8889 7.75158 44.9641 8.44537 45.2515C9.13916 45.5389 9.73215 46.0255 10.1494 46.6499C10.5666 47.2743 10.7892 48.0084 10.7892 48.7593C10.7892 49.7663 10.3892 50.7321 9.67717 51.4441C8.96511 52.1562 7.99936 52.5562 6.99237 52.5562ZM32.3049 67.7437C32.3049 68.9953 31.9337 70.2188 31.2384 71.2594C30.543 72.3001 29.5547 73.1112 28.3984 73.5901C27.2421 74.0691 25.9697 74.1944 24.7422 73.9503C23.5147 73.7061 22.3871 73.1034 21.5021 72.2184C20.6171 71.3334 20.0144 70.2058 19.7702 68.9783C19.526 67.7507 19.6514 66.4784 20.1303 65.3221C20.6093 64.1657 21.4204 63.1774 22.461 62.4821C23.5017 61.7867 24.7252 61.4156 25.9767 61.4156C27.6544 61.4176 29.2629 62.085 30.4492 63.2713C31.6355 64.4576 32.3029 66.066 32.3049 67.7437ZM3.19549 13.3218C3.19156 11.6767 3.58855 10.0554 4.35211 8.59826C5.11567 7.14108 6.2228 5.8919 7.5777 4.95881C8.9326 4.02572 10.4945 3.43684 12.1281 3.2431C13.7618 3.04937 15.4181 3.25663 16.9536 3.84695C18.4892 4.43727 19.8578 5.39287 20.941 6.63105C22.0242 7.86923 22.7893 9.35271 23.1703 10.9531C23.5512 12.5535 23.5365 14.2226 23.1273 15.8161C22.7181 17.4095 21.9268 18.8792 20.8219 20.098C20.8802 19.9557 20.9116 19.8038 20.9142 19.65C20.9174 18.6524 20.7227 17.664 20.3412 16.7422C19.9597 15.8204 19.3991 14.9835 18.6918 14.2799C18.1874 13.7756 17.6149 13.3445 16.9908 12.9991C17.6748 12.2819 18.1333 11.3798 18.3094 10.4045C18.4855 9.42916 18.3714 8.42361 17.9814 7.51253C17.5913 6.60144 16.9424 5.82488 16.1151 5.27915C15.2878 4.73341 14.3185 4.44251 13.3275 4.44251C12.3364 4.44251 11.3671 4.73341 10.5398 5.27915C9.71252 5.82488 9.06361 6.60144 8.67354 7.51253C8.28348 8.42361 8.16941 9.42916 8.3455 10.4045C8.52158 11.3798 8.98007 12.2819 9.6641 12.9991C8.47254 13.6537 7.47857 14.6162 6.78598 15.7861C6.09339 16.956 5.72758 18.2904 5.72674 19.65C5.72932 19.8022 5.75933 19.9527 5.81534 20.0942C4.13067 18.2408 3.19668 15.8265 3.19549 13.3218ZM13.3205 12.0562C12.8199 12.0562 12.3305 11.9078 11.9142 11.6296C11.4979 11.3515 11.1735 10.9562 10.9819 10.4936C10.7903 10.0311 10.7402 9.52217 10.8379 9.03115C10.9356 8.54014 11.1766 8.08911 11.5306 7.73511C11.8846 7.38111 12.3357 7.14003 12.8267 7.04236C13.3177 6.94469 13.8266 6.99482 14.2892 7.1864C14.7517 7.37799 15.147 7.70243 15.4252 8.11869C15.7033 8.53495 15.8517 9.02434 15.8517 9.52497C15.8517 10.1963 15.5851 10.8401 15.1104 11.3148C14.6357 11.7895 13.9918 12.0562 13.3205 12.0562ZM13.3205 14.5875C14.4428 14.5875 15.5334 14.9604 16.4206 15.6477C17.3079 16.335 17.9417 17.2976 18.2223 18.3843H8.41746C8.69948 17.2982 9.33377 16.3362 10.221 15.6492C11.1083 14.9621 12.1983 14.5887 13.3205 14.5875ZM6.5494 20.827C6.69045 20.8832 6.84056 20.9132 6.99237 20.9156H19.6486C19.8028 20.9135 19.9551 20.8826 20.0979 20.8245C18.2455 22.5098 15.8312 23.4437 13.3268 23.4437C10.8225 23.4437 8.40815 22.5098 6.55573 20.8245L6.5494 20.827ZM25.9767 39.9C25.9767 37.1465 26.7932 34.4548 28.323 32.1654C29.8528 29.876 32.0271 28.0916 34.5709 27.0378C37.1148 25.9841 39.9141 25.7084 42.6146 26.2456C45.3152 26.7828 47.7959 28.1087 49.7429 30.0557C51.6899 32.0027 53.0158 34.4834 53.553 37.184C54.0902 39.8845 53.8145 42.6838 52.7608 45.2276C51.707 47.7715 49.9226 49.9458 47.6332 51.4756C45.3438 53.0053 42.6521 53.8218 39.8986 53.8218C36.2076 53.8175 32.6691 52.3493 30.0592 49.7394C27.4493 47.1295 25.9811 43.591 25.9767 39.9ZM59.7057 73.9833C59.8467 74.0394 59.9968 74.0695 60.1486 74.0719H72.8049C72.959 74.0697 73.1114 74.0388 73.2542 73.9807C71.4017 75.666 68.9874 76.6 66.4831 76.6C63.9787 76.6 61.5644 75.666 59.712 73.9807L59.7057 73.9833ZM66.4767 65.2125C65.9761 65.2125 65.4867 65.064 65.0705 64.7859C64.6542 64.5077 64.3298 64.1124 64.1382 63.6499C63.9466 63.1874 63.8965 62.6784 63.9941 62.1874C64.0918 61.6964 64.3329 61.2454 64.6869 60.8914C65.0409 60.5374 65.4919 60.2963 65.9829 60.1986C66.4739 60.1009 66.9829 60.1511 67.4454 60.3427C67.9079 60.5342 68.3033 60.8587 68.5814 61.2749C68.8595 61.6912 69.008 62.1806 69.008 62.6812C69.008 63.3526 68.7413 63.9964 68.2666 64.4711C67.7919 64.9458 67.1481 65.2125 66.4767 65.2125ZM66.4767 67.7437C67.5991 67.7437 68.6896 68.1167 69.5769 68.804C70.4642 69.4912 71.0979 70.4539 71.3785 71.5406H61.5737C61.8557 70.4544 62.49 69.4925 63.3773 68.8054C64.2645 68.1184 65.3546 67.745 66.4767 67.7437ZM73.9768 73.2543C74.0357 73.112 74.0674 72.9601 74.0705 72.8062C74.0737 71.8086 73.8789 70.8203 73.4974 69.8985C73.1159 68.9767 72.5553 68.1398 71.8481 67.4362C71.3437 66.9319 70.7711 66.5007 70.1471 66.1554C70.8311 65.4382 71.2896 64.536 71.4657 63.5607C71.6417 62.5854 71.5277 61.5799 71.1376 60.6688C70.7476 59.7577 70.0986 58.9811 69.2714 58.4354C68.4441 57.8897 67.4748 57.5988 66.4837 57.5988C65.4926 57.5988 64.5233 57.8897 63.6961 58.4354C62.8688 58.9811 62.2199 59.7577 61.8298 60.6688C61.4397 61.5799 61.3257 62.5854 61.5017 63.5607C61.6778 64.536 62.1363 65.4382 62.8204 66.1554C61.6288 66.81 60.6348 67.7725 59.9422 68.9424C59.2496 70.1123 58.8838 71.4467 58.883 72.8062C58.8856 72.9584 58.9156 73.1089 58.9716 73.2505C57.6555 71.7979 56.7894 69.9946 56.4782 68.0594C56.1671 66.1241 56.4244 64.1402 57.2188 62.3483C58.0133 60.5565 59.3107 59.0337 60.9538 57.9649C62.5968 56.8961 64.5148 56.3272 66.4748 56.3272C68.4349 56.3272 70.3529 56.8961 71.9959 57.9649C73.6389 59.0337 74.9364 60.5565 75.7309 62.3483C76.5253 64.1402 76.7826 66.1241 76.4715 68.0594C76.1603 69.9946 75.2942 71.7979 73.9781 73.2505L73.9768 73.2543Z" fill="#1652EE"/>
</svg>