<svg xmlns="http://www.w3.org/2000/svg" width="80" height="80" fill="none">
  <path d="M27.4484 28.3252h-8.925v-8.925c0-.3381-.1343-.6624-.3734-.9015-.2391-.2391-.5634-.3735-.9016-.3735-2.2695 0-4.4881.673-6.3751 1.9339-1.88708 1.2609-3.35786 3.0531-4.22637 5.1499-.86852 2.0967-1.09576 4.404-.653 6.6299.44277 2.2259 1.53565 4.2706 3.14046 5.8754s3.64941 2.6977 5.87541 3.1405c2.2259.4427 4.5332.2155 6.6299-.653 2.0968-.8686 3.889-2.3393 5.1499-4.2264 1.2608-1.887 1.9338-4.1056 1.9338-6.3752 0-.3381-.1343-.6624-.3734-.9015-.2391-.2391-.5634-.3735-.9016-.3735Zm-11.475-7.5594v8.3066l-5.865 5.865c-.9309-1.2374-1.52312-2.6962-1.71818-4.2323-.19505-1.5362.0138-3.0967.60594-4.5275.59215-1.4308 1.54714-2.6825 2.77074-3.6315 1.2235-.9491 2.6734-1.5627 4.2065-1.7803Zm1.275 17.7594c-1.9248 0-3.7973-.6266-5.3346-1.785l5.865-5.865h8.3067c-.3095 2.1236-1.3725 4.0649-2.995 5.4695-1.6225 1.4045-3.6961 2.1785-5.8421 2.1805Z" fill="#1652EE"/>
  <path d="M22.3492 25.7751h10.2c.3382 0 .6625-.1343.9016-.3734.2391-.2391.3734-.5634.3734-.9016-.0037-3.0422-1.2139-5.9587-3.365-8.1099-2.1512-2.1512-5.0678-3.3613-8.11-3.3651-.3381 0-.6624.1344-.9015.3735-.2392.2391-.3735.5634-.3735.9015v10.2c0 .3382.1343.6625.3735.9016.2391.2391.5634.3734.9015.3734Zm1.275-10.1094c1.9058.2786 3.6709 1.1647 5.0328 2.5267 1.3619 1.3619 2.2481 3.1269 2.5267 5.0327h-7.5595v-7.5594Zm25.5 16.4844c-3.2782 0-6.4828.9722-9.2086 2.7934-2.7257 1.8213-4.8502 4.41-6.1047 7.4387-1.2545 3.0287-1.5827 6.3613-.9432 9.5766.6396 3.2152 2.2182 6.1686 4.5362 8.4866 2.3181 2.3181 5.2715 3.8967 8.4867 4.5363 3.2152.6395 6.5479.3113 9.5766-.9432 3.0287-1.2546 5.6173-3.379 7.4386-6.1048 1.8213-2.7257 2.7934-5.9303 2.7934-9.2085-.005-4.3945-1.753-8.6074-4.8603-11.7148-3.1073-3.1073-7.3203-4.8552-11.7147-4.8603Zm-6.375 11.4751V36.248c.8151-.4175 1.6692-.7541 2.55-1.0047v8.3819h-2.55Zm15.3 2.55v2.55h-17.85v-2.55h17.85Zm-5.1-2.55v-8.3819c.8809.2506 1.7349.5872 2.55 1.0047v7.3772h-2.55Zm-2.55-8.86v8.86h-2.55v-8.86c.4208-.0383.8441-.065 1.275-.065.431 0 .8543.0267 1.275.065Zm-10.2 3.1492v5.7108h-1.275c-.3381 0-.6624.1343-.9015.3734-.2392.2391-.3735.5634-.3735.9016v5.1c0 .3381.1343.6624.3735.9015.2391.2391.5634.3735.9015.3735h20.4c.3382 0 .6625-.1344.9016-.3735.2391-.2391.3734-.5634.3734-.9015v-5.1c0-.3382-.1343-.6625-.3734-.9016-.2391-.2391-.5634-.3734-.9016-.3734h-1.275v-5.7108c2.2826 1.8745 3.9118 4.4247 4.6532 7.2837.7414 2.859.5568 5.8796-.5273 8.6271H36.0733c-1.084-2.7475-1.2686-5.7681-.5273-8.6271.7414-2.859 2.3706-5.4092 4.6532-7.2837Zm8.925 24.8358c-2.3327-.0025-4.6279-.5867-6.6779-1.6999-2.05-1.1131-3.7899-2.72-5.0623-4.6751h23.4804c-1.2724 1.9551-3.0123 3.562-5.0623 4.6751-2.0499 1.1132-4.3452 1.6974-6.6779 1.6999Z" fill="#1652EE"/>
  <path d="m78.0294 69.4528-5.5157-5.5156c.255-.4802.3498-1.0293.2707-1.5671-.0791-.5379-.3281-1.0364-.7106-1.4228l-3.2448-3.2449c1.5628-3.3973 2.2136-7.1431 1.8883-10.8685-.3253-3.7254-1.6155-7.3018-3.7435-10.3768V4.10015c0-1.01446-.403-1.98736-1.1203-2.70469C65.1362.678136 64.1633.275146 63.1488.275146H4.49883c-1.01445 0-1.98736.40299-2.70469 1.120314C1.07682 2.11279.673828 3.08569.673828 4.10015V52.5502c0 1.0144.402992 1.9873 1.120312 2.7046.71733.7174 1.69024 1.1204 2.70469 1.1204H28.8692c1.0397 2.7789 2.641 5.3137 4.704 7.4462 2.063 2.1325 4.5434 3.8169 7.2863 4.948 2.743 1.1312 5.6897 1.6849 8.6561 1.6266 2.9665-.0584 5.8892-.7275 8.5855-1.9657l3.2449 3.2449c.3833.3874.8822.6399 1.4215.7192.5392.0794 1.0897-.0187 1.5684-.2794l5.5156 5.5157c1.0845 1.0844 2.5553 1.6937 4.0889 1.6937 1.5337 0 3.0045-.6093 4.089-1.6937 1.0844-1.0845 1.6936-2.5553 1.6936-4.0889 0-1.5337-.6092-3.0045-1.6936-4.089ZM4.49883 2.82515H63.1488c.3382 0 .6625.13433.9016.37344.2391.2391.3734.56341.3734.90156v3.825H3.22383v-3.825c0-.33815.13433-.66246.37344-.90156.23911-.23911.56341-.37344.90156-.37344Zm0 51.00005c-.33815 0-.66245-.1344-.90156-.3735-.23911-.2391-.37344-.5634-.37344-.9015V10.4751H64.4238v22.9131c-1.8452-1.8337-4.0044-3.3214-6.375-4.3924V14.3001c0-.3381-.1343-.6624-.3734-.9015-.2391-.2391-.5634-.3735-.9016-.3735h-5.1c-.3381 0-.6624.1344-.9015.3735-.2391.2391-.3735.5634-.3735.9015v12.8151c-.4245-.0255-.844-.0651-1.275-.0651-.4309 0-.8504.0396-1.275.0651v-5.1651c0-.3381-.1343-.6624-.3734-.9015-.2391-.2391-.5634-.3735-.9016-.3735h-5.1c-.3381 0-.6624.1344-.9015.3735-.2391.2391-.3735.5634-.3735.9015v7.0457c-4.611 2.0601-8.3509 5.676-10.5652 10.2151-2.2143 4.539-2.762 9.7122-1.5473 14.6143H4.49883Zm50.99997-25.815c-.8369-.2524-1.6885-.4533-2.55-.6018V15.5751h2.55v12.4351Zm-10.2-.6018c-.8614.1485-1.713.3494-2.55.6018v-4.7851h2.55v4.1833Zm-15.3 21.3168c0-3.7826 1.1217-7.4802 3.2232-10.6253 2.1015-3.1451 5.0884-5.5964 8.583-7.0439 3.4947-1.4476 7.34-1.8263 11.0499-1.0884 3.7099.738 7.1177 2.5595 9.7923 5.2341 2.6747 2.6747 4.4962 6.0825 5.2342 9.7923.7379 3.7099.3592 7.5553-1.0884 11.05-1.4475 3.4946-3.8988 6.4815-7.0439 8.583-3.1451 2.1015-6.8427 3.2232-10.6253 3.2232-5.0705-.0058-9.9317-2.0226-13.5171-5.608-3.5853-3.5854-5.6021-8.4465-5.6079-13.517Zm30.4496 18.4466c2.8974-1.7856 5.3365-4.2247 7.1221-7.1221l2.7005 2.7005-7.1222 7.1221-2.7004-2.7005Zm13.492 9.6034c-.4247.001-.8455-.0822-1.2379-.2448-.3924-.1626-.7486-.4014-1.0481-.7026l-5.4277-5.4276 4.5721-4.5722 5.4277 5.4277c.4521.4522.76 1.0283.8847 1.6554.1247.6271.0607 1.2772-.184 1.8679-.2447.5908-.6591 1.0957-1.1907 1.451-.5316.3553-1.1566.545-1.7961.5452Z" fill="#1652EE"/>
  <path d="M22.3484 43.6252H7.04844c-.33815 0-.66245.1344-.90156.3735-.23911.2391-.37344.5634-.37344.9015v5.1c0 .3382.13433.6625.37344.9016.23911.2391.56341.3734.90156.3734H22.3484c.3382 0 .6625-.1343.9016-.3734.2391-.2391.3734-.5634.3734-.9016v-5.1c0-.3381-.1343-.6624-.3734-.9015-.2391-.2391-.5634-.3735-.9016-.3735Zm-1.275 5.1H8.32344v-2.55H21.0734v2.55Z" fill="#1652EE"/>
</svg>