<svg xmlns="http://www.w3.org/2000/svg" width="77" height="77" viewBox="0 0 77 77" fill="none">
  <path fill-rule="evenodd" clip-rule="evenodd" d="M38.4 76.8C59.6077 76.8 76.8 59.6077 76.8 38.4C76.8 17.1923 59.6077 0 38.4 0C17.1923 0 0 17.1923 0 38.4C0 59.6077 17.1923 76.8 38.4 76.8ZM39.8036 37.7914L56.9787 25.874C56.3979 25.0866 55.4637 24.576 54.4102 24.576H22.3898C21.3762 24.576 20.473 25.0488 19.8887 25.7858L36.5477 37.7641C37.5177 38.4616 38.8219 38.4726 39.8036 37.7914ZM57.6 48.8993V28.8988L41.0625 40.3738C39.3126 41.588 36.9877 41.5685 35.2585 40.3251L19.2 28.7784V48.8993C19.2 50.661 20.6281 52.0891 22.3898 52.0891H54.4102C56.1719 52.0891 57.6 50.661 57.6 48.8993Z" fill="#1652EE"/>
</svg>