<svg xmlns="http://www.w3.org/2000/svg" width="78" height="77" viewBox="0 0 78 77" fill="none">
  <path fill-rule="evenodd" clip-rule="evenodd" d="M38.7984 76.8C60.0061 76.8 77.1984 59.6077 77.1984 38.4C77.1984 17.1923 60.0061 0 38.7984 0C17.5907 0 0.398438 17.1923 0.398438 38.4C0.398438 59.6077 17.5907 76.8 38.7984 76.8ZM38.8053 22.272H40.0411C43.7839 22.2767 47.3719 23.7666 50.0168 26.4144C52.6618 29.0623 54.1474 32.6516 54.1474 36.3939V37.6295C54.1076 38.0697 53.9042 38.4789 53.5773 38.7763C53.2504 39.0737 52.8239 39.2377 52.3819 39.2359H52.2407C51.775 39.1955 51.3444 38.9722 51.0432 38.6147C50.7421 38.2574 50.5949 37.7951 50.634 37.3295V36.3939C50.634 33.5849 49.518 30.8909 47.5314 28.9046C45.5449 26.9183 42.8505 25.8025 40.0411 25.8025H39.1054C38.6372 25.8423 38.1723 25.6944 37.813 25.3915C37.4538 25.0886 37.2296 24.6555 37.1898 24.1873C37.15 23.7191 37.2978 23.2543 37.6008 22.8952C37.9037 22.536 38.337 22.3118 38.8053 22.272ZM44.0892 37.6421C43.7581 37.3111 43.5721 36.8621 43.5721 36.3939C43.5721 35.4576 43.2001 34.5595 42.5378 33.8974C41.8757 33.2354 40.9776 32.8634 40.0411 32.8634C39.5728 32.8634 39.1238 32.6775 38.7927 32.3464C38.4616 32.0154 38.2756 31.5663 38.2756 31.0982C38.2756 30.63 38.4616 30.181 38.7927 29.85C39.1238 29.5189 39.5728 29.3329 40.0411 29.3329C41.9141 29.3329 43.7103 30.0769 45.0347 31.4011C46.359 32.7252 47.1031 34.5212 47.1031 36.3939C47.1031 36.8621 46.917 37.3111 46.586 37.6421C46.2549 37.9731 45.8058 38.1592 45.3376 38.1592C44.8693 38.1592 44.4203 37.9731 44.0892 37.6421ZM51.3945 53.0429L51.3944 53.057C51.3936 53.4317 51.3143 53.802 51.1618 54.1442C51.0095 54.4858 50.7877 54.7918 50.5104 55.0426C50.2166 55.31 49.8671 55.5088 49.4872 55.6247C49.1293 55.7339 48.7527 55.7669 48.3817 55.7219C45.1325 55.703 41.4175 54.1704 38.1688 52.3592C34.8717 50.5211 31.9205 48.3187 30.1983 46.8405L30.1723 46.8183L30.1482 46.7942C25.2281 41.8712 22.0695 35.4613 21.1622 28.5588C21.1055 28.1676 21.1358 27.7686 21.2511 27.3903C21.3669 27.0102 21.5657 26.6605 21.8329 26.3665C22.0865 26.0857 22.3967 25.8618 22.7429 25.7093C23.0888 25.5571 23.4627 25.4796 23.8404 25.4819H29.1959C29.8121 25.4696 30.4139 25.6699 30.9 26.0493C31.3893 26.4312 31.7312 26.9709 31.8675 27.5767L31.8894 27.6737V27.7733C31.8894 28.0244 31.9469 28.2586 32.0283 28.5902C32.0612 28.7241 32.098 28.8741 32.1365 29.0474L32.1368 29.0487C32.3342 29.944 32.5968 30.8238 32.9225 31.6808L33.2168 32.4549L29.9587 33.9917L29.9546 33.9936C29.7391 34.0926 29.5717 34.273 29.489 34.4953L29.4838 34.5093L29.4781 34.5231C29.3886 34.7412 29.3886 34.9859 29.4781 35.204L29.5167 35.2979L29.5332 35.398C29.644 36.069 30.0127 36.9393 30.6624 37.9522C31.3051 38.9541 32.1909 40.0464 33.275 41.155C35.4351 43.3639 38.3362 45.5904 41.5477 47.2617C41.7578 47.3391 41.9896 47.3351 42.1974 47.2497L42.2112 47.2441L42.2253 47.2388C42.4465 47.1564 42.6263 46.9899 42.7255 46.7756L42.7266 46.773L44.1923 43.5142L44.9729 43.799C45.859 44.1223 46.7654 44.3863 47.6864 44.5895L47.6907 44.5905L47.695 44.5915C48.1312 44.6921 48.6079 44.7776 49.0744 44.8467L49.1074 44.8517L49.1399 44.859C49.7453 44.9954 50.2846 45.3375 50.6663 45.827C51.0426 46.3097 51.2426 46.9062 51.2336 47.5178L51.3945 53.0429Z" fill="#1652EE"/>
</svg>