<svg xmlns="http://www.w3.org/2000/svg" width="78" height="77" viewBox="0 0 78 77" fill="none">
  <path fill-rule="evenodd" clip-rule="evenodd" d="M39.2008 76.8C60.4083 76.8 77.6008 59.6076 77.6008 38.4C77.6008 17.1924 60.4083 0 39.2008 0C17.9932 0 0.800781 17.1924 0.800781 38.4C0.800781 59.6076 17.9932 76.8 39.2008 76.8ZM56.0791 24.533C56.3756 21.1692 52.8228 22.5546 52.8228 22.5546C50.2001 23.6406 47.4952 24.7434 44.7611 25.8586C36.2824 29.3169 27.5241 32.8896 20.063 36.4063C16.0172 37.89 18.3857 39.3738 18.3857 39.3738L24.7992 41.353C27.7599 42.2438 29.3381 41.2539 29.3381 41.2539L43.1529 31.8551C48.0865 28.4913 46.9023 31.2614 45.718 32.4488L35.3577 42.3421C33.7787 43.7276 34.5682 44.9149 35.2586 45.5086C37.217 47.2358 42.0324 50.3962 44.1344 51.7755C44.6812 52.1341 45.0445 52.373 45.1267 52.4344C45.6197 52.83 48.2839 54.6109 50.0603 54.2154C51.8367 53.8191 52.0341 51.5436 52.0341 51.5436L54.4018 36.01C54.7566 33.3135 55.1644 30.7215 55.4901 28.651C55.7973 26.6957 56.0315 25.2065 56.0791 24.533Z" fill="#1652EE"/>
</svg>