<svg xmlns="http://www.w3.org/2000/svg" width="77" height="77" viewBox="0 0 77 77" fill="none">
  <path fill-rule="evenodd" clip-rule="evenodd" d="M38.5992 76.8C59.8068 76.8 76.9992 59.6076 76.9992 38.4C76.9992 17.1924 59.8068 0 38.5992 0C17.3917 0 0.199219 17.1924 0.199219 38.4C0.199219 59.6076 17.3917 76.8 38.5992 76.8ZM19.3992 26.112C19.711 41.0788 27.1944 50.0736 40.3142 50.0736H41.0576V41.5104C45.8791 41.9904 49.524 45.5163 50.9878 50.0736H57.7992C55.9284 43.2614 51.0116 39.4959 47.9412 38.0567C51.0116 36.2819 55.3286 31.9642 56.36 26.112H50.1714C48.8282 30.8613 44.8477 35.1782 41.0576 35.586V26.112H34.8698V42.7092C31.0321 41.75 26.1868 37.0975 25.9702 26.112H19.3992Z" fill="#1652EE"/>
</svg>