<svg xmlns="http://www.w3.org/2000/svg" width="1856" height="1073" fill="none">
  <path fill-rule="evenodd" clip-rule="evenodd" d="M56.5332.399963H0L.00140421 1072.4H1856V.399963h-56.53c20.61 0 37.33 16.609937 37.33 37.099137V916.053c0 20.489-16.72 37.099-37.33 37.099h-416.54c-20.62 0-37.33 16.61-37.33 37.099v8.481c0 20.488-16.72 37.098-37.33 37.098H374.4c-20.618 0-37.333-16.61-37.333-37.098v-50.164c0-21.208 17.192-38.4 38.4-38.4h217.332c19.441 0 35.2-15.76 35.2-35.2v-18.807c0-20.488 16.715-37.098 37.333-37.098h84.536c20.617 0 37.332-16.611 37.332-37.099V553.009c0-20.488-16.715-37.099-37.332-37.099H541.334c-20.618 0-37.333-16.61-37.333-37.098v-13.251c0-20.489-16.715-37.099-37.333-37.099H54.4013c-19.4404 0-35.1999-15.661-35.1999-34.979L19.2 37.4991C19.2 17.0099 35.9147.399963 56.5332.399963Z" fill="#fff"/>
</svg>
