<svg xmlns="http://www.w3.org/2000/svg" width="46" height="34" fill="none">
  <g clip-path="url(#a)" fill-rule="evenodd" clip-rule="evenodd" fill="#383D40">
    <path d="M.194345 4.96971c0-2.73794 2.227175-4.96970664 4.959735-4.96970664V2.10834c-1.57096 0-2.75984 1.28669-2.75984 2.86117 0 1.57468 1.18874 2.86176 2.75984 2.86176v2.10795c-2.73256 0-4.959581-2.23138-4.959581-4.96971l-.000154.0002ZM30.5528.109981h6.071V2.21832h-1.9357v7.61131h-2.1999V2.21832h-1.9354V.109981ZM26.9125 4.66866c.6964 0 1.2293-.6025 1.2293-1.25939 0-.65709-.5192-1.24594-1.2293-1.24594v2.50533Zm.0271-4.558679c1.899 0 3.3198 1.478149 3.3198 3.299289 0 1.82054-1.4208 3.29909-3.3198 3.29909h-.0271v3.12127h-2.2002V.109981h2.2273ZM18.9111 7.83127c1.5713 0 2.7601-1.28688 2.7601-2.86156 0-1.57409-1.1888-2.86117-2.7601-2.86117-1.5711 0-2.7599 1.28708-2.7599 2.86117 0 1.57468 1.1887 2.86176 2.7599 2.86176v-.0002Zm0-7.83106865c2.7328 0 4.9596 2.23196865 4.9596 4.96970865 0 2.73793-2.2268 4.9695-4.9596 4.9695-2.7323 0-4.9593-2.23157-4.9593-4.9697 0-2.73754 2.227-4.96950865 4.9593-4.96950865ZM6.22352 9.82963V.109981h6.88678V9.82963H10.91V2.21832H8.4234v7.61131H6.22352ZM42.197 18.321v-2.6436l-1.525 2.6436h1.525Zm-.2156-6.5474h2.4151v9.7203H42.197v-1.2848h-2.6074l-.7447 1.2848h-2.4642l5.6007-9.7203Zm-20.9042 4.5591c.6966 0 1.2293-.6023 1.2293-1.2595 0-.6572-.5188-1.2458-1.2293-1.2458v2.5053Zm3.3471-1.2595c0 1.8207-1.4209 3.2996-3.32 3.2996h-.0271v3.1213h-2.2001v-9.7205h2.2272c1.8991 0 3.32 1.4788 3.32 3.2995v.0001Zm-11.3484 4.4224c1.5715 0 2.76-1.2869 2.76-2.8614 0-1.5743-1.1885-2.8616-2.76-2.8616-1.5709 0-2.7596 1.2873-2.7596 2.8617 0 1.5744 1.1886 2.8614 2.7596 2.8614v-.0001Zm0-7.831c2.7326 0 4.9596 2.2311 4.9596 4.9696 0 2.7379-2.2268 4.9695-4.9596 4.9695-2.7325 0-4.95938-2.2316-4.95938-4.9696 0-2.7384 2.22688-4.9697 4.95938-4.9697v.0002Zm17.5281 5.656 3.1954-5.5468 2.2367-.0002v9.7203h-2.1999v-5.5074l-3.1729 5.5074h-2.2592v-5.4762l-3.1553 5.4762h-2.4646l5.6009-9.7203h2.2189v5.547ZM5.0748 15.5801v-3.8065h2.20006v9.7203H5.0748v-3.8058H2.58856v3.8058H.388512v-9.7203H2.58856V15.58l2.48624.0001Zm20.6313 12.3493c.8197.4792 1.3252 1.1446 1.3252 2.2536 0 1.9024-1.5483 2.959-3.4019 2.9752h-1.2438v-2.0525h1.2438c.8642-.0058 1.243-.4882 1.243-1.0869 0-.6163-.4233-.9393-1.1336-.9393h-.9659V27.231h.8288c.5881 0 .9704-.3229.9704-.884 0-.5074-.2251-.8305-.9427-.8982h-1.2438v-2.0107h1.2438c1.5713 0 3.0738.7454 3.0738 2.4982 0 .8073-.2184 1.3769-.9969 1.9931h-.0002Zm-9.919 1.077 3.2081-5.5683h2.224v9.72l-2.1999.0001v-5.4874l-3.1617 5.4874H13.587v-9.7201h2.2001v5.5683Zm25.6638-5.5683h2.2239v9.72l-2.2.0001v-5.4874l-3.1618 5.4874h-2.2701v-9.7201h2.1997v5.5682l3.2083-5.5682Zm-8.7748 3.8062v-3.8062h2.2002v9.72l-2.2002.0001v-3.8059h-2.4867v3.8057h-2.1999v-9.72h2.1999v3.8062h2.4865l.0002.0001Zm-20.1185-3.8062-2.60711 4.5242 2.99371 5.1957h-2.4647l-2.90648-5.0447v5.0447H5.3732v-5.0447L2.46648 33.158H.00195312L2.99559 27.9623.388358 23.4379l2.464602.0001 2.5204 4.3742V23.438h2.19966v4.3742l2.52008-4.3742h2.4645v.0001ZM45.3367 4.96833l-1.7551 3.04551h-2.1323l1.2111-2.10162H36.625V4.02383h6.0354l-1.2111-2.10122h2.1323l1.7551 3.04572Z"/>
  </g>
  <defs>
    <clipPath id="a">
      <path fill="#fff" d="M0 0h45.3333v33.1582H0z"/>
    </clipPath>
  </defs>
</svg>